<?xml version="1.0" encoding="UTF-8" standalone="no"?>
<svg
   xmlns:stEvt="http://ns.adobe.com/xap/1.0/sType/ResourceEvent#"
   xmlns:xmpMM="http://ns.adobe.com/xap/1.0/mm/"
   xmlns:xmp="http://ns.adobe.com/xap/1.0/"
   xmlns:Iptc4xmpCore="http://iptc.org/std/Iptc4xmpCore/1.0/xmlns/"
   xmlns:xmpRights="http://ns.adobe.com/xap/1.0/rights/"
   xmlns:x="adobe:ns:meta/"
   xmlns:osb="http://www.openswatchbook.org/uri/2009/osb"
   xmlns:dc="http://purl.org/dc/elements/1.1/"
   xmlns:cc="http://creativecommons.org/ns#"
   xmlns:rdf="http://www.w3.org/1999/02/22-rdf-syntax-ns#"
   xmlns:svg="http://www.w3.org/2000/svg"
   xmlns="http://www.w3.org/2000/svg"
   xmlns:xlink="http://www.w3.org/1999/xlink"
   xmlns:sodipodi="http://sodipodi.sourceforge.net/DTD/sodipodi-0.dtd"
   xmlns:inkscape="http://www.inkscape.org/namespaces/inkscape"
   version="1.1"
   id="Layer_1"
   x="0px"
   y="0px"
   viewBox="0 0 500 500"
   style="enable-background:new 0 0 500 500;"
   xml:space="preserve"
   sodipodi:docname="Floral-Butterfly-Left.svg"
   inkscape:version="1.0.2-2 (e86c870879, 2021-01-15)"><defs
   id="defs11"><linearGradient
     id="linearGradient850"
     osb:paint="solid"><stop
       style="stop-color:#87cefa;stop-opacity:1;"
       offset="0"
       id="stop848" /></linearGradient><linearGradient
     inkscape:collect="always"
     xlink:href="#linearGradient850"
     id="linearGradient852"
     x1="133.27371"
     y1="182.81064"
     x2="236.74699"
     y2="182.81064"
     gradientUnits="userSpaceOnUse"
     gradientTransform="matrix(-1,0,0,1,499.8487,0)" /></defs><sodipodi:namedview
   pagecolor="#ffffff"
   bordercolor="#666666"
   borderopacity="1"
   objecttolerance="10"
   gridtolerance="10"
   guidetolerance="10"
   inkscape:pageopacity="0"
   inkscape:pageshadow="2"
   inkscape:window-width="1920"
   inkscape:window-height="1001"
   id="namedview9"
   showgrid="false"
   inkscape:zoom="1.66"
   inkscape:cx="198.48753"
   inkscape:cy="191.37432"
   inkscape:window-x="-9"
   inkscape:window-y="-9"
   inkscape:window-maximized="1"
   inkscape:current-layer="Layer_1"
   inkscape:document-rotation="0" />
<metadata
   id="metadata2"><?xpacket begin="﻿" id="W5M0MpCehiHzreSzNTczkc9d"?>
<x:xmpmeta
   x:xmptk="Adobe XMP Core 6.0-c002 79.164352, 2020/01/30-15:50:38        ">
   
<metadata><rdf:RDF>
      <rdf:Description
   rdf:about="">
         <xmpRights:Marked>True</xmpRights:Marked>
         <xmpRights:WebStatement>crafthousesvg.com</xmpRights:WebStatement>
         <dc:rights>
            <rdf:Alt>
               <rdf:li
   xml:lang="x-default">Copyright © 2020 Craft House SVG. All rights reserved.</rdf:li>
            </rdf:Alt>
         </dc:rights>
         <dc:creator>
            <rdf:Seq>
               <rdf:li>Craft House SVG</rdf:li>
            </rdf:Seq>
         </dc:creator>
         <Iptc4xmpCore:CreatorContactInfo>
            <rdf:Description>
               <Iptc4xmpCore:CiUrlWork>crafthousesvg.com</Iptc4xmpCore:CiUrlWork>
            </rdf:Description>
         </Iptc4xmpCore:CreatorContactInfo>
         <xmp:MetadataDate>2020-08-12T14:24:37-07:00</xmp:MetadataDate>
         <xmpMM:InstanceID>xmp.iid:8e980e72-b384-472e-ae16-fd7e2572be79</xmpMM:InstanceID>
         <xmpMM:DocumentID>xmp.did:8e980e72-b384-472e-ae16-fd7e2572be79</xmpMM:DocumentID>
         <xmpMM:OriginalDocumentID>xmp.did:8e980e72-b384-472e-ae16-fd7e2572be79</xmpMM:OriginalDocumentID>
         <xmpMM:History>
            <rdf:Seq>
               <rdf:li>
                  <rdf:Description>
                     <stEvt:action>saved</stEvt:action>
                     <stEvt:instanceID>xmp.iid:8e980e72-b384-472e-ae16-fd7e2572be79</stEvt:instanceID>
                     <stEvt:when>2020-08-12T14:24:37-07:00</stEvt:when>
                     <stEvt:softwareAgent>Adobe Bridge 2020 (Macintosh)</stEvt:softwareAgent>
                     <stEvt:changed>/metadata</stEvt:changed>
                  </rdf:Description>
               </rdf:li>
            </rdf:Seq>
         </xmpMM:History>
      </rdf:Description>
   <cc:Work
   rdf:about=""><dc:format>image/svg+xml</dc:format><dc:type
     rdf:resource="http://purl.org/dc/dcmitype/StillImage" /><dc:title></dc:title></cc:Work></rdf:RDF></metadata></x:xmpmeta>
                                                                                                    
                                                                                                    
                                                                                                    
                                                                                                    
                                                                                                    
                                                                                                    
                                                                                                    
                                                                                                    
                                                                                                    
                                                                                                    
                                                                                                    
                                                                                                    
                                                                                                    
                                                                                                    
                                                                                                    
                                                                                                    
                                                                                                    
                                                                                                    
                                                                                                    
                                                                                                    
                           
<?xpacket end="w"?></metadata>
<style
   type="text/css"
   id="style4">
	.st0{fill:#231F20;}
</style>
<path
   class="st0"
   d="m 55.848704,140.5 c -12.7,7 -56.60000034,-12.1 -50.4000003,-15.7 25.6000003,-14.9 50.5000003,1.6 53.0000003,9.6 14.2,6.7 11,6.9 7.6,0.7 -5.4,-10.1 -7.3,-37.7 -1.5,-34.4 15.6,8.5 24,26.2 20.6,43.6 -1,5.4 -1.7,3.9 0.4,5.4 1,0.7 7.8,6 7.5,5.8 9.599996,-0.9 9.399996,0.4 5.3,-5.1 -5.5,-7.4 -8.9,-15.3 -6.9,-24.2 -8.4,-11.4 -12,-42.8 -10.3,-43.9 1.7,-1.2 17.6,5 22.599996,25.4 1.5,-1 3.3,-2.1 6.2,-2 10.4,0.3 8.8,-11 24.3,1.2 2.9,2.3 5.2,5.2 5,4.9 16.1,18.1 1.1,14.2 19,-2.3 12.9,-13.3 28.3,-0.6 40.3,13.4 8.5,9.9 4.9,24.8 -2.9,31.9 10.1,2.5 17.6,11.6 16.8,25.3 -1.3,22.6 -7.3,8.9 9.6,18.7 2.4,1.1 9.8,8.4 11.8,-1.8 0.3,-2 1.1,-8.1 1.2,-8.5 -0.1,-4.9 -3.4,-8.2 -0.1,-13.2 1.5,-2.5 4.1,-3.6 3.9,-3.6 4,-2.4 -10.1,-56.7 -27.6,-87.7 -10.7,-19 -5.7,-5.4 -11.2,-7.5 -7,-2.6 -3.1,-10.7 3.7,-9 5.5,1.4 9.9,10.5 9.7,10.3 31,51.9 27.3,92 32.7,91.8 6.2,-0.2 -4.7,-4.2 14.8,-60.7 24.4,-70.6 36.2,-59.4 33.3,-49.7 -1.1,3.8 -4.2,4.9 -6.4,2.2 -16.7,28.3 -32.4,69.2 -35.4,109.4 11.2,5.2 3.1,13.8 5.8,23.8 2.7,10.1 -4.9,0.6 50.7,-34.7 78.8,-50 164.4,-45.2 182.6,-35.9 10.6,5.4 -6,5.6 -12.8,12.5 -5.8,5.9 -1,14.6 -14.6,17.3 1.1,9.4 -1.5,14.4 -6.1,19.4 -2.7,3 2.6,8.9 -3.5,18.2 -2.6,3.9 0.7,2.8 3.4,13.5 3.5,13.9 -6.7,17.3 -9.1,32.3 -1.5,9.4 1.6,11.4 -10.4,17 -8.6,4 -5.9,13.1 -16,22.2 -22.9,20.6 -90.5,0.6 -117.4,-10.2 32.8,26.2 80.6,17.2 102.4,30.9 16.1,10.1 25.3,36.6 12.3,49.4 -1.2,1.2 -5,3 -5.5,4.4 -0.7,1.6 1.8,6.9 2.1,8.8 6.3,32.3 -13.3,52.5 -35.8,48.6 -3.5,-0.6 -7.3,-1.8 -12.6,-3.3 -5,-1.4 -5.2,5.8 -15.6,9.7 -14.4,5.4 -33.2,0.9 -43.9,-16.5 -2.2,-3.6 -3.5,-9.1 -6.8,-11.9 -3,-2.5 -8.4,-1.8 -12.1,-3.5 -22.9,-10 -19.1,-47.6 -19.8,-76.3 -1.3,-53.7 -9.7,-52.4 -10.4,-27.7 -0.5,16.2 0.1,89.1 -13.9,83.3 -11.6,-4.8 -4.3,-28.8 -16.4,-23.3 -0.3,-0.5 -5.5,3.3 -15.9,-1.1 -13.8,-5.8 -4.7,-8.8 -14,5.6 7.7,-0.8 19.5,2.1 24,5.1 6.4,4.2 8.3,11 8,18.5 4.3,2.3 14.5,8 10.2,10.1 -16.2,6.7 -12.9,4.7 -15.1,10.8 9.1,-2.8 22.8,-4.3 29.9,1.9 2.3,2 -2.8,6.2 -5.8,8.8 -10.1,8.6 -17.1,13 -32.1,11.1 -0.5,-0.1 6.4,3.9 6.6,4.1 7.8,-10.5 53.7,13.2 46.9,16.4 -24.7,11.7 -46,-5.3 -47.6,-12.7 -12.5,-7.2 -9.5,-7 -6.9,-1.2 4.1,9.4 4,34.9 -1.2,31.5 -13.6,-8.9 -20,-25.6 -15.6,-41.3 0.8,-2.8 1,-0.2 -6,-2.4 2.4,29.1 -7.7,40.5 -10.3,40.1 -1.3,-0.2 -1.5,-1.2 -3.7,-7.2 -2.5,-6.7 0.7,-5.2 -10.9,-1.3 -20.9,7.1 -36.1,-7.5 -37.3,-25.6 -26.5,18.6 -56.499996,-10.6 -55.599996,-28.8 0.9,-18.5 24.299996,-27.7 33.099996,-29.2 -11.599996,-11.9 -28.099996,-26.3 -18.099996,-42.9 -17.6,-4.9 -18.1,-28.2 -16.7,-46.4 1.2,-16.2 17.8,-26.3 30.899996,-25.4 -11.099996,-17.6 5,-19.3 -12.999996,-8.8 -15.7,9.1 -30.9,3 -30.7,3 -7.2,-1.8 20.9,-21.5 24.6,-23.8 -14.5,0 -21.5,-21.1 -19.9,-35 2.7,-23.4 34.099996,-9 12,-23.1 -7.1,23.2 -57.4,25.4 -53,15.5 1.9,-4.4 12,-13.8 15.5,-16.3 6.9,-5 16.9,-7 25,-6.4 -10.9,-5.3 -7,-3.8 -10.5,-1.9 z m -34.7,-13.2 c -13.7000003,-1.7 -9.7,0.1 5.3,6.1 6.7,2.7 22.3,7.9 27.9,3.4 -10.2,-4.7 -20.7,-7.9 -33.2,-9.5 z M 398.8487,187.5 c 38.7,7.7 10.5,-32.5 -23.4,-20 3.6,23 -21.3,11.2 23.4,20 z m -34.7,3.9 c -13.1,10.9 -18.4,0.4 19.7,11.6 41,12 36.8,-7.2 10.3,-11.4 -31,-5.1 -25,-4.4 -30,-0.2 z m 84.3,-53.4 c -11.2,-12.2 -74.4,-3 -66.3,2 9.9,6.1 3.5,10.3 14.8,7.1 22.1,-6.4 48.7,2.3 52.3,-1 2,-1.8 1.6,-5.5 -0.8,-8.1 z m 4.1,25.4 c 4.3,-18.5 -60.7,-12.8 -54.2,-10.4 3.4,1.2 6,2.8 7.7,6 2.8,5.5 8.9,2.5 32.1,7.1 5.1,1 13.1,2.7 14.4,-2.7 z m -3.8,24.1 c 3.5,-11.2 4.1,-13.9 -10.9,-16.8 -16.8,-3.2 -8.8,3.6 -7.1,10.5 1.7,6.7 -1,8.7 1.9,11.4 2.7,2.5 8.2,3.7 11.5,2.8 1.7,-0.5 2.5,-1.4 4.6,-7.9 z m -8.4,34.5 c 4.6,-0.2 10.9,-12.7 5.9,-18.3 -3.4,-3.8 -9.2,-5 -11.4,-4 -2.8,1.4 1.3,5.4 0.1,11 -0.9,4.6 -4.3,5.6 -2.7,8 1.4,1.9 5.3,3.5 8.1,3.3 z m -39.6,33.3 c 6.2,5.6 48.4,-27.9 31.6,-30.8 -4.2,-0.7 -6.4,5.4 -9.3,10.2 -8.4,13.8 -24.1,18.9 -22.3,20.6 z m -2.1,-31.3 c 5.1,-8 -12.6,-14.8 -23.6,-17.8 -31.6,-8.6 -31.5,-4.5 -54.5,2.9 35.3,6.6 71.1,25.9 78.1,14.9 z m -87.8,-11.8 c -36.4,11 -36.7,5.6 -20.4,12 30,11.8 111.5,43.1 94.7,15.8 -8,-13.1 -58.6,-24.6 -74.3,-27.8 z m 79,91.5 c -4.7,-10.2 -28.8,0.5 -87,-26.1 -59.6,-27.3 65.7,36.4 75.7,44.8 6.7,5.7 15,-10.5 11.3,-18.7 z m -29.6,68.8 c 24.9,7.8 30.1,-18.1 18.4,-36.8 -5.4,-8.7 -14.6,-14.2 -23.4,-19.5 -13.3,-8 -66.5,-38.6 -66.7,-38.7 66.4,67.5 57,90.3 71.7,95 z m -25.9,13.9 c 6.7,0 12.2,-3.2 14,-10 3.6,-13.4 -43.7,-75.1 -57.4,-88.4 -18.7,-18.3 22.7,20.2 24.2,72.8 0.1,1.6 -4,25.5 19.2,25.6 z m -59.4,-108.5 c 5.7,34.4 -2.2,79.5 18.9,89.4 27.7,12.9 14.3,-42.9 -12.5,-82.9 -8.2,-12.3 -7.6,-14.1 -6.4,-6.5 z m -6.6,-55.6 c 24.2,25.6 101.3,51.3 121.6,41.4 7.6,-3.7 2.9,-5 -12.1,-6.7 -53.3,-6.1 -115.4,-40.9 -109.5,-34.7 z m -5.7,-7.6 c 4,1.9 107.3,-17.4 104.8,-46.3 -3.7,-43.3 -65.6,5 -97.4,34.6 -9.5,8.9 -7.9,8.8 -7.4,11.7 z m -33.9,201.3 c 9.6,5.5 25.6,11.5 36.7,11.3 -30,-17.4 -38.8,-12.6 -36.7,-11.3 z M 89.148704,96.2 c -10.4,-21.7 -0.1,19.1 3.7,25.5 2.3,-6.1 6.3,-4.5 -3.7,-25.5 z m 36.699996,10.6 c -11.1,-3.5 -0.2,1.2 -17.2,3.5 -14.599996,1.9 -24.899996,33.5 11.5,53.9 2.3,1.3 10.2,4.9 12.7,4 -0.7,-0.7 -3.1,-1.7 -2.9,-1.6 -22,-10.5 -31.199996,-27 -25.7,-26 1.9,0.3 16.8,21.3 30,23.6 1,-2.2 -9.4,-5.7 -20.9,-20.3 -2.3,-3 -5.1,-7.5 -1.3,-7 1.9,0.3 6.4,7.9 13.8,14.5 33.1,29.5 -19.9,-27.1 -8.7,-25.8 1.8,0.2 20.6,28.3 20.8,28.5 5.3,8.4 1.8,-0.5 0.5,-5.4 -2.4,-9.2 -3.6,-14.7 -9.3,-22.3 -10.3,-13.9 3.1,-9.8 9.9,10.4 4.3,12.6 4.1,20.4 6.1,20 0.4,-5.8 -0.7,-16.8 0.6,-24.6 0.9,-5.8 -8.1,-18.1 -19.9,-25.4 z m -3.3,91 c -48.599996,36.2 32.5,69.4 21.7,57.2 -0.2,-0.2 -37.4,-30.8 -29.5,-33 2.3,-0.5 11.7,10.4 13.5,12.4 23.9,26.8 27.6,20.6 9.6,-2.1 -2.8,-3.5 -8.1,-10.3 -3.5,-10.2 5.7,0.2 17,24.8 18.5,25.3 5.8,2.2 -0.1,-12.4 0,-12.2 -7.6,-25 -15.5,-26 -14.6,-30.7 1.1,-5.8 13.5,8.6 19.7,33.5 1.4,5.5 0.2,7.8 6,7.5 0.9,-1.9 2.3,-15.9 2.5,-17 0.6,-3.8 2.7,-12.1 2.7,-12.2 -0.1,-2.7 -14.2,-42.6 -46.6,-18.5 z m 56.3,122.4 c -0.5,7.8 -3.6,12.5 -5.2,10.2 -1.4,-2.1 4.1,-33.8 -5.8,-47.6 -3.8,1.4 3.1,11.7 0.2,36.7 -0.5,4.3 -2,10.7 -4.6,7.2 -1.2,-1.5 1.3,-13.6 0.7,-25 -3.3,-56.8 -7.1,40.2 -15.2,30.5 -1.5,-1.8 0.3,-7.3 0.8,-9.5 6.1,-28 4.8,-28 6.1,-33.9 3.7,-16.5 -7.3,7 -7.2,6.8 -14.2,24.1 -8.7,33.7 -13.2,35.4 -3.5,1.3 -6.2,-14.1 15.9,-48 1.1,-1.7 1.5,-2.3 0.1,-3.1 -4.7,4 -8.9,9.2 -13.5,13.5 -11.8,11.2 -11.2,8 -12.4,12.7 -2.6,10.4 -5.4,20.4 -2.3,32.3 5.1,16.1 3.3,3.1 19.3,15.4 14.6,11.3 52.2,-7.4 37.9,-58.2 -0.9,-3.2 -4.9,-13.7 -7.9,-15 -2.9,-1.1 8,13.8 6.3,39.6 z m 17.1,-172.3 c 8.3,-13.4 0.3,-22.3 -11.6,-32.3 -11.5,-9.7 -21.5,-12.7 -32.6,10.4 -3,6.2 -2.7,28 -2.4,29.6 0.9,4.6 2.6,-14.7 15.1,-30.7 3.8,-7 12,-8.9 3.4,1.7 -6.5,9.3 -11.1,19.2 -13.9,30.3 l 0.6,0.3 c 23.4,-33.2 23.4,-25.4 15.1,-14 -9.2,12.7 -17.4,22.1 1.5,5 8.8,-8 13.4,-16.2 15.7,-14.9 3.4,1.8 -10.8,17.9 -26.1,27.5 1.8,-1 10.2,-5.1 23.7,-6.4 5.8,-0.5 6,2.3 11.5,-6.5 z m -34.2,17.2 c -2.4,3.3 9,-0.7 23.5,0.1 0.2,0 17.1,0.1 13.4,3.8 -2.4,2.4 -21,-1.2 -34.1,1 -2.3,0.4 -2.6,1.8 0.5,2.8 11,3.4 22.3,2.7 23.2,5.5 1.7,5 -17.1,0.2 -21.3,-1.3 -5.2,-1.8 -6.9,0.4 -4.1,1.9 20.9,10.9 23.9,5.9 26.5,9.6 3.2,4.7 -13.3,2.2 -25.5,-4.7 -3.6,-2 -3.3,-2.1 -4,-2.3 -0.8,-0.2 -4.2,0.9 -1.5,3 0.2,0.2 13.5,10.6 13.6,10.9 1.1,2 -0.1,3.3 -2,2.3 -6.4,-3.1 -14.4,-12.7 -17,-12.6 -4.9,0.1 0.2,2 4.8,5.9 26,21.8 5.1,22.4 23.7,10.3 11.6,-7.5 18.1,-8 24.8,-7.5 11.6,-51.5 -42.1,-32 -44.5,-28.7 z m 70,46.4 c -12.3,-10.3 -22.2,-17 -37.4,-11.9 -8.8,3 -17.5,10.9 -20.3,16.8 -2.3,4.8 -5.4,28.2 -5.3,31.4 0,0.7 -0.3,0.3 1.7,1.5 16,-37.1 27.4,-43.7 28.1,-38.9 0.4,3.5 -13.5,10.8 -23.9,41.6 1.9,1.2 1.4,1.1 2.2,0.5 7.1,-5.4 25.4,-29.1 26.4,-22 0.4,3.1 -20.6,23.1 -22.9,25.2 0.8,0.1 13.8,-3 21,-7.8 8.3,-5.5 18.6,-15.9 21.9,-15.2 2.8,0.5 -1,4.1 -3.5,6.1 -29.8,30 -45.2,13.6 -13.5,23.5 4.3,1.1 4.5,4.7 22.6,-10.8 -0.2,-13.4 3.3,-39.6 2.9,-40 z m -0.2,55.3 c -6.1,-14.6 4.8,-9.3 -14.2,-0.4 2.6,1.4 6.6,3 15.5,8.4 -0.3,-3.6 -0.8,-6.2 -1.3,-8 z m 3.4,62.7 c -1.4,-19.4 -1.4,-48.7 -2.2,-49.2 -13.6,-8.3 -29.2,-15.6 -45.1,-17.2 -17,-1.7 6,5.5 18.7,11.9 4.1,2 25.6,16.3 25.2,19.1 -0.7,4.6 -8.9,-2.8 -10.5,-4.1 -18.5,-15.1 -40.6,-21.1 -40.8,-21.2 -11.2,-2 32.4,26.1 31.2,25.4 3,1.8 8.2,5.6 4.9,6.7 -5.7,1.8 -48,-36.2 -38.8,-23.6 24,32.4 39.2,32.3 37.8,37 -0.6,2.1 -4.2,0 -6,-1.2 -13.7,-7.5 -16.2,-11.9 -23.9,-19.6 -0.2,-0.2 3,17.1 3.9,18.3 12.3,15.8 30.8,31.4 45.6,17.7 z m -34.4,0.6 c -9.1,-7 -7,-6.9 -8.1,-4.1 -1.1,3 -13.2,23.1 -19,27.6 17.8,-10 19.8,-5.7 27.1,-23.5 z m 50.5,60.6 c -7.2,-3.5 -19.5,-1.4 -26.9,1.5 -2.5,5.2 -6.7,9 -12,10.8 11.2,-1.2 31.5,-8 38.9,-12.3 z m -35.2,49.3 c 2.8,-23.9 -9.9,-34.3 -9.8,-34 -0.32588,-0.32588 0.49517,6.99441 3.34909,16.839 1.52489,5.2601 3.63014,11.24087 6.45091,17.161 z m 10.3,-77 c 0.6,-7.8 -6.4,-12.6 -14.3,-14 -23.7,-4.3 -39.1,11.7 -42,11.7 -3.4,2.8 15.7,-4.8 36.3,-1.3 8.4,0 14.4,6.8 0.1,4 -12,-1.5 -23.5,-0.8 -35.3,2.1 v 0.7 c 43.2,5.5 35.2,9.1 20.7,7.2 -4.1,-0.6 -18.2,-2.6 -18.2,-2.6 17.3,10.6 36.1,10 36.1,13.8 0,2.4 -5.5,1.3 -7.8,0.7 -12.9,-1.7 -21.8,-5.6 -26.8,-8.5 1.9,1.7 4.3,4.1 7.4,7.4 2.3,2.5 6.1,8.1 8.1,12.2 1.7,3.7 31.6,17.5 35.7,-33.4 z m -89.3,45.1 c 2.6,20.4 13.2,30 33,22.9 50.1,-18 -15.2,-68.9 -0.3,-47.5 4.2,6 19.2,31.6 12.4,30.1 -2.5,-0.5 -15.8,-31.5 -19.1,-32.5 -6.3,-1.8 10.7,30.1 3.4,27.7 -4.7,-1.6 -7.9,-24.4 -8.8,-25.2 -3.8,-2.9 -2.7,10 -2.7,9.8 0,21.5 6,25.2 4.2,28.6 -2.9,5.6 -7.9,-11.5 -8.3,-20.9 -0.8,-15.9 3.2,-17.2 -2.5,-18.6 -0.5,0.6 -1.8,3.1 -5.2,11 -5.4,12.5 -6.8,9.2 -6.1,14.6 z m -34,-49.2 c -4.499996,2.1 -8.999996,3.2 -14.999996,7.9 -16.8,13.1 3,52.6 32.599996,43.3 12.9,-4.1 14.2,-8.8 23.6,-29.7 4.7,-10.7 -11.4,14.1 -25.8,21.4 -3.6,2.1 -7.6,3 -7.1,0.3 0.5,-3.2 13.3,-5.2 29.6,-27.8 -2.5,-2.9 -29.8,17.9 -28.5,10.3 0.4,-2.7 21.9,-13.5 24.3,-14.7 -26.4,-1.3 -34.5,11 -39.899996,8.1 -2.3,-1.3 1.5,-3.3 4.299996,-4.4 16.4,-8.8 21,-7.8 29.5,-8.2 -17,-8 -14.6,-12.5 -27.6,-6.5 z m 29,-1.2 c -16,-12 -25.8,-28.1 -25.6,-27.9 -4.1,-5.7 1.9,-5.4 3.8,-1.9 16.1,24.2 1.3,7.8 10.1,-21.6 -6.9,3.1 -17.3,4 -24.199996,3.5 -18.8,28.4 63.699996,68.9 35.899996,47.9 z m -27.8,-115.9 C 76.848704,244 76.248704,267.3 82.048704,294 c 3.8,17.6 34.599996,11.5 44.699996,2.6 43.7,-38.3 8.5,-9.3 -20.8,-5.7 -8.999996,2.7 -18.099996,-2.3 -1.4,-4 14.1,-2.4 27,-7.2 39.3,-14.7 l -0.3,-1.2 c -50.299996,8.5 -42.8,2.2 -25.9,-0.5 4.8,-0.8 22.5,-3.5 22.5,-3.5 -19.7,-6.2 -45.199996,0.4 -46.299996,-3.3 -0.7,-2.4 5.9,-3 8.399996,-3.2 18.8,-3.1 40.7,2.5 40.5,2.5 -0.1,-0.4 -1.3,-0.7 -1,-0.6 -28.8,-9.1 -26.6,-21.5 -37.7,-20.6 z M 67.948704,227.2 c 19.7,-3.7 40.799996,-23.1 38.999996,-21.5 -9.499996,-4 -31.599996,14.9 -38.999996,21.5 z m 10.6,-64.2 c -15.4,5.8 -10.7,47.2 18.4,39 24.999996,-7.5 20.799996,-8.1 29.199996,-12.1 3.6,-1.7 12.9,-3.9 10.5,-7.1 -43.799996,20.1 -51.699996,9 -40.999996,7.9 9.299996,-1 16.799996,-1.4 24.999996,-4.8 44.6,-18.5 -27.299996,2 -23.999996,-4.4 2.5,-4.9 58.199996,-7.3 27.299996,-9.2 -19.7,-1.2 -26.499996,1 -26.199996,0.9 -9.4,2.5 -12.7,-0.4 -1.1,-3.5 19.799996,-5.3 27.199996,3.1 14.999996,-5.9 -9.2,-6.6 -24.399996,-4.1 -33.099996,-0.8 z m 0.2,-17.8 c -0.2,0 -1,-14.8 -13.6,-36.2 -0.6,18.6 3.5,25.3 13.6,36.2 z m -47.5,20.6 c 12.2,4.8 39.4,-4.8 43.5,-17.2 -13.1,2 -35.9,11.9 -43.5,17.2 z"
   id="path6"
   style="fill:#000000;fill-opacity:0.808023"
   sodipodi:nodetypes="cccccccccccccccccccccccccccccccccccccccccccccccccccscccccccccccccccccccccccsccccccccccccccccccccccccccccccccccccccccccccccccccccccccccccccccccccccccccccccccccccccccccccccccccccccccccccccccccccccccccccccccccccccccccccccccccccccccccccccccscscccccccccccccccsccccccccccccccccccccccccccccccccsccccccccccccsccccccccccscccccccccccccccccccccccccccccccccccccccccccccccccccccccccccccccccccccccc" />
<path
   style="fill:#800080;stroke-width:0.60241"
   d="m 274.51172,213.20078 c 30.99155,-5.45352 63.84137,-16.25728 78.59563,-25.84882 5.54228,-3.60296 10.82927,-8.83466 12.48251,-12.35196 1.68916,-3.59375 1.84285,-7.72009 0.46086,-12.37375 -4.95767,-16.69429 -22.69092,-14.51604 -53.7056,6.59689 -13.06417,8.8933 -32.86035,25.1002 -43.94136,35.97427 -4.69895,4.6112 -5.60325,5.80217 -5.60325,7.37952 0,1.81885 0.0845,1.8793 2.56024,1.83225 1.40813,-0.0267 5.52606,-0.57054 9.15097,-1.2084 z"
   id="path15" /><path
   style="fill:#87cefa;fill-opacity:1;stroke-width:0.60241"
   d="m 414.16822,186.74612 c 2.95196,-1.79982 3.5506,-3.5966 2.29429,-6.8862 -2.00987,-5.26277 -10.26841,-11.1285 -18.69821,-13.28063 -4.71341,-1.20334 -13.23462,-1.16774 -18.18588,0.076 l -3.95163,0.99261 0.3607,2.25566 c 0.50372,3.15013 -0.58599,8.27145 -2.31636,10.88623 l -1.45818,2.20345 5.83595,0.72231 c 3.20977,0.39727 10.17329,1.51278 15.4745,2.47891 11.63363,2.1202 17.80187,2.28503 20.64482,0.55168 z"
   id="path842" /><path
   style="fill:#87cefa;fill-opacity:1;stroke-width:0.60241"
   d="m 410.51448,206.00113 c 1.06196,-0.32995 2.33567,-1.17788 2.83047,-1.88431 0.79521,-1.13532 0.79617,-1.48448 0.008,-3.00809 -1.17819,-2.27837 -6.23279,-5.53637 -11.09489,-7.15133 -4.55616,-1.51334 -27.25439,-5.40318 -31.52897,-5.40318 -2.59808,0 -3.2534,0.29663 -6.02443,2.72699 -1.71009,1.49984 -4.3616,3.35332 -5.89225,4.11883 l -2.783,1.39185 5.39828,0.71873 c 2.96906,0.3953 9.64309,1.82956 14.83119,3.18724 16.52028,4.32321 21.35144,5.33268 26.9028,5.62129 2.98192,0.15503 6.29056,0.0119 7.35252,-0.31802 z"
   id="path844" /><path
   style="fill:url(#linearGradient852);fill-opacity:1;stroke-width:0.60241"
   d="m 277.86075,212.28919 c 26.30774,-4.931 58.04761,-15.26341 71.98795,-23.43453 4.80938,-2.81902 9.5526,-6.6098 12.49338,-9.98472 4.30779,-4.94372 5.22726,-9.57995 3.21428,-16.20724 -2.13755,-7.03742 -6.96428,-10.85547 -13.72336,-10.85547 -7.252,0 -22.37663,6.52675 -36.02044,15.54396 -19.85607,13.12289 -52.71085,41.31223 -52.71085,45.2258 0,1.16044 0.31968,1.2739 3.46386,1.22925 1.90512,-0.0271 6.98795,-0.70972 11.29518,-1.51705 z"
   id="path846" /><path
   style="fill:#87cefa;fill-opacity:1;stroke-width:0.60241"
   d="m 383.47155,250.0309 c 3.76217,-1.22003 4.40116,-3.65883 2.16756,-8.27283 -4.33019,-8.94499 -26.07851,-18.02003 -64.65108,-26.97732 l -9.58357,-2.22549 -11.50077,3.02214 c -6.32542,1.66217 -13.05951,3.35327 -14.96463,3.75799 -1.90512,0.40472 -3.46385,0.92089 -3.46385,1.14704 0,0.22616 1.1521,0.75129 2.56024,1.16695 1.40813,0.41567 8.25301,2.93139 15.21084,5.5905 28.88201,11.03797 49.13974,17.68204 64.14919,21.03944 8.56513,1.9159 17.23643,2.67244 20.07607,1.75158 z"
   id="path858" /><path
   style="fill:#8b00b8;fill-opacity:1;stroke-width:0.60241"
   d="m 394.35514,226.52085 c 2.76783,-0.88544 4.58995,-2.96505 4.58995,-5.23858 0,-6.40899 -14.33257,-13.23058 -37.92285,-18.04938 -11.49948,-2.34901 -16.72317,-1.92689 -29.24583,2.36331 -5.3012,1.81616 -9.23193,3.43547 -8.73494,3.59846 0.49699,0.163 4.42771,1.13613 8.73494,2.16253 4.30723,1.02639 15.21351,4.16973 24.23617,6.9852 9.02266,2.81546 19.00348,5.79443 22.1796,6.61993 6.54511,1.70112 13.59288,2.38071 16.16296,1.55853 z"
   id="path862" /><path
   style="fill:#8b00b8;fill-opacity:1;stroke-width:0.60241"
   d="m 384.4352,265.02244 c 3.79001,-0.67761 8.18458,-2.91357 8.18458,-4.16433 0,-1.21627 -3.66695,-2.14763 -13.043,-3.31276 -27.96214,-3.47476 -55.5103,-11.98918 -98.3383,-30.39382 -6.25971,-2.69001 -11.48748,-4.78475 -11.61726,-4.65497 -0.56033,0.56032 7.20714,6.89479 13.81882,11.26941 19.80543,13.1043 53.41561,26.03155 79.00336,30.38653 6.93879,1.18097 17.84016,1.6122 21.9918,0.86994 z"
   id="path866" /><path
   style="fill:#007940;fill-opacity:1;stroke-width:0.60241"
   d="m 223.95327,400.29014 c 7.50596,-1.99462 19.04568,-6.02973 23.08446,-8.07197 l 3.36656,-1.70233 -3.16889,-0.67961 c -5.47568,-1.17432 -11.2253,-0.72645 -19.41424,1.51229 -2.79626,0.76446 -3.54212,1.2681 -4.49309,3.03394 -0.62714,1.16453 -2.46847,3.3115 -4.09183,4.77105 -3.46641,3.11659 -3.08217,3.20918 4.71703,1.13663 z"
   id="path868" /><path
   style="fill:#8b00b8;fill-opacity:1;stroke-width:0.60241"
   d="m 304.90033,367.69127 c 5.5468,-3.88513 4.88714,-18.54608 -1.71756,-38.1732 -3.39417,-10.08643 -8.18555,-21.03468 -13.019,-29.74826 -3.23562,-5.83307 -14.87169,-24.51038 -15.11717,-24.2649 -0.0648,0.0648 0.26098,2.82415 0.72406,6.13179 0.80796,5.77111 1.33669,13.73424 2.69922,40.65246 1.1644,23.00403 3.62274,33.09057 9.76595,40.06963 4.57959,5.20269 13.00201,7.89778 16.6645,5.33248 z"
   id="path872" /><path
   style="fill:#00ff52;fill-opacity:1;stroke-width:0.60241"
   d="m 305.14554,366.85805 c 2.17529,-1.71109 3.0693,-4.90549 3.03207,-10.83395 -0.0802,-12.76964 -6.16773,-32.27254 -16.07683,-51.50603 -3.95289,-7.67254 -15.96533,-27.71551 -16.35408,-27.28707 -0.0891,0.0983 0.19903,3.70273 0.6404,8.00996 0.44137,4.30723 1.23766,15.96386 1.76953,25.90362 1.8231,34.0706 3.64116,43.10558 10.20446,50.71184 4.52192,5.24048 13.19509,7.82501 16.78445,5.00163 z"
   id="path874" /><path
   style="fill:#000000;fill-opacity:0;stroke-width:0.60241"
   d="m 397.43906,146.55624 c 8.22671,-2.01013 22.87473,-2.47655 35.46946,-1.12942 14.98142,1.60241 17.24446,1.2679 17.23914,-2.54816 -0.006,-4.50616 -5.17755,-7.97396 -14.24606,-9.5533 -6.82368,-1.18838 -28.97064,-0.79261 -37.55892,0.67118 -6.75151,1.15073 -14.3988,3.15634 -15.4909,4.0627 -1.17366,0.97405 -0.97146,1.39811 1.48487,3.11412 1.24247,0.86799 2.91383,2.54584 3.71415,3.72854 0.8003,1.1827 1.88464,2.36994 2.40963,2.63832 0.57012,0.29145 3.3806,-0.10483 6.97863,-0.98398 z"
   id="path880" /><path
   style="fill:#ffff44;fill-opacity:1;stroke-width:0.60241"
   d="m 278.76436,211.7612 c 22.13836,-4.26715 49.50219,-12.76562 65.0943,-20.21653 9.93971,-4.74984 18.38256,-11.68546 21.13393,-17.36106 2.2077,-4.55411 0.74682,-13.13054 -2.95473,-17.34637 -5.69144,-6.48218 -13.52268,-6.08249 -29.57638,1.50951 -11.00702,5.20537 -22.52036,12.8907 -38.57369,25.74855 -16.48057,13.20004 -30.48487,26.36334 -30.48487,28.65416 0,0.93449 8.0844,0.41439 15.36144,-0.98826 z"
   id="path882" /><path
   style="fill:#228b22;fill-opacity:1;stroke-width:0.60241"
   d="m 77.836274,142.39706 c 0.0761,-3.97259 -6.43727,-21.68369 -10.7232,-29.15834 l -1.89162,-3.29896 -7.1e-4,2.10843 c -0.002,4.8289 1.30511,12.9177 2.67464,16.5562 1.47304,3.9135 4.66883,9.03892 8.08197,12.96188 1.61866,1.86042 1.83731,1.95815 1.85892,0.83079 z"
   id="path888" /><path
   style="fill:#0000ff;fill-opacity:1;stroke-width:0.60241"
   d="m 395.99455,225.13122 c 2.91137,-1.9554 3.12634,-4.92585 0.5674,-7.84032 -3.7605,-4.28298 -16.47644,-9.48905 -31.14613,-12.75163 -14.43414,-3.2102 -20.05914,-2.99243 -32.87677,1.27279 -4.60357,1.53189 -8.14941,2.9819 -7.87964,3.22223 0.26977,0.24034 3.37346,1.14658 6.89709,2.01387 3.52363,0.8673 15.04471,4.18092 25.60241,7.36362 28.06163,8.45939 34.56877,9.58527 38.83564,6.71944 z"
   id="path892" /><path
   style="fill:#0000ff;fill-opacity:1;stroke-width:0.60241"
   d="m 207.44973,399.77074 c 9.72376,-3.47479 15.7802,-14.59064 17.97651,-32.99363 0.78075,-6.54195 0.22358,-8.90477 -2.86853,-12.16461 -7.01436,-7.39484 -24.79254,-7.88865 -38.97407,-1.08254 -5.86448,2.81452 -13.31625,7.56399 -11.11376,7.08347 13.34755,-2.91203 35.49562,-2.8541 40.56419,0.1061 2.43703,1.42331 2.74774,2.96946 0.70002,3.4834 -0.85586,0.21481 -3.78803,0.0603 -6.51593,-0.34326 -7.1701,-1.06083 -20.68597,-0.91391 -27.85139,0.30276 -7.79407,1.32341 -8.6108,1.82578 -3.83766,2.36052 16.17904,1.81257 30.16523,5.3788 27.56169,7.02775 -1.38044,0.8743 -8.79825,0.58833 -17.09752,-0.65913 -10.03633,-1.50857 -10.89183,-1.49534 -7.83133,0.12112 4.05518,2.1418 11.61095,4.70703 21.03592,7.1418 9.07224,2.34365 11.05603,3.30584 10.39067,5.03976 -0.49759,1.29669 -4.03438,1.23443 -11.58264,-0.20387 -7.3568,-1.40183 -12.16323,-2.75988 -16.45505,-4.64936 -1.78068,-0.78395 -3.38068,-1.42536 -3.55555,-1.42536 -0.17487,0 1.18999,1.58092 3.03303,3.51316 1.84305,1.93224 4.70359,5.65965 6.35676,8.28313 1.65318,2.62349 3.69381,5.46886 4.53474,6.32305 3.02631,3.07401 10.76729,4.43766 15.5299,2.73574 z"
   id="path894" /><path
   style="fill:#0000ff;fill-opacity:1;stroke-width:0.60241"
   d="m 125.45111,164.59115 c -9.2718,-5.20763 -17.35234,-12.11668 -21.12061,-18.05861 -2.02411,-3.19171 -2.37236,-6.17109 -0.7213,-6.17109 0.5773,0 4.44026,3.46987 8.58433,7.71082 4.14408,4.24095 9.31481,8.97326 11.49051,10.51623 3.78337,2.68312 9.49851,5.56761 10.01264,5.05348 0.13405,-0.13405 -0.92089,-1.1442 -2.3443,-2.24478 -10.34033,-7.99516 -17.80589,-15.53115 -20.44941,-20.64235 -2.38735,-4.61589 0.92913,-5.72096 4.34454,-1.44762 5.25919,6.58026 19.91287,20.46141 20.73367,19.64061 0.13962,-0.13962 -2.22028,-3.63319 -5.24421,-7.76349 -13.13812,-17.94501 -16.13315,-22.83176 -15.30924,-24.97884 1.07068,-2.79014 3.99073,0.47022 16.45508,18.3728 4.49825,6.46085 8.04295,11.06928 7.87711,10.24097 -0.63426,-3.16788 -4.06111,-14.99704 -5.31693,-18.35352 -0.72272,-1.93165 -2.81122,-5.70829 -4.64111,-8.39254 -3.60936,-5.29453 -5.1954,-8.51924 -4.63559,-9.42504 0.80698,-1.30571 2.69603,-0.38944 5.66145,2.74605 5.13459,5.42908 9.07985,14.93227 12.50094,30.11179 l 1.08615,4.81928 0.4278,-13.55422 0.42781,-13.55421 -1.81473,-3.76475 c -3.39886,-7.0511 -15.4344,-18.17583 -20.74095,-19.17135 -1.65832,-0.3111 -2.40248,-0.0949 -3.84181,1.11623 -0.98181,0.82614 -3.15639,1.804 -4.83239,2.17302 -1.67601,0.36902 -4.46153,0.98318 -6.19007,1.3648 -4.24225,0.9366 -8.739326,5.34066 -10.690496,10.46939 -2.81969,7.41164 -1.39133,17.19758 3.648216,24.99475 4.92312,7.61702 14.81958,15.70058 23.87174,19.49876 5.95339,2.49798 6.34963,1.82664 0.77116,-1.30657 z"
   id="path896" /><path
   style="fill:#000000;fill-opacity:0;stroke-width:0.60241"
   d="m 445.95137,193.22289 c 1.6593,-2.69497 4.26669,-11.0627 4.39221,-14.09564 0.13028,-3.14772 -1.12531,-4.61968 -5.24549,-6.14943 -4.07387,-1.51255 -10.85439,-2.65735 -14.22009,-2.40087 -3.44323,0.26239 -3.67445,1.21681 -1.47962,6.10754 1.20144,2.67716 1.74891,5.08921 2.01763,8.8892 0.23036,3.25763 0.70638,5.62294 1.26821,6.30171 1.47893,1.78674 5.50597,3.27798 8.89021,3.29209 2.93526,0.0123 3.26129,-0.1326 4.37694,-1.9446 z"
   id="path898" /><path
   style="fill:#808000;fill-opacity:1;stroke-width:0.60241"
   d="m 374.16371,372.70881 c 7.29041,-2.78086 11.2974,-11.60857 9.76176,-21.50597 -0.94041,-6.06112 -3.7378,-12.84501 -7.26126,-17.60913 -5.6273,-7.60875 -10.36222,-10.73008 -58.74322,-38.72453 -13.58434,-7.86023 -25.10542,-14.44744 -25.60241,-14.63824 -0.49699,-0.1908 2.39511,3.16261 6.42689,7.45204 22.70433,24.15524 36.91634,43.86933 49.30437,68.39221 5.69063,11.26494 7.74623,14.0408 11.68927,15.78501 3.3366,1.47596 11.51807,1.95728 14.4246,0.84861 z"
   id="path900" /><path
   style="fill:#808000;fill-opacity:1;stroke-width:0.60241"
   d="m 174.95847,205.94759 c 6.55986,-6.46151 18.04866,-11.90949 26.20512,-12.42644 l 4.92935,-0.31243 0.71,-4.20935 c 0.3905,-2.31515 0.59409,-6.81874 0.45244,-10.00798 -0.32556,-7.3296 -1.84126,-11.07062 -6.00039,-14.81003 -4.27381,-3.84252 -7.71124,-4.85854 -16.16533,-4.77807 -7.48754,0.0713 -13.65651,1.36235 -19.67489,4.11766 -3.64154,1.66714 -4.35984,3.0984 -1.25884,2.50828 4.15346,-0.7904 26.64325,-1.11203 30.25375,-0.43266 4.23822,0.79749 5.75002,1.91581 4.54793,3.36424 -0.68229,0.82211 -2.80974,0.93714 -15.9121,0.86036 -15.16536,-0.0889 -19.87705,0.25858 -19.4843,1.43685 0.35376,1.06127 4.29203,2.12045 13.694,3.68292 4.94104,0.82113 9.53838,1.78981 10.21631,2.15263 1.46158,0.78221 1.62985,2.74557 0.27972,3.26367 -2.59104,0.99427 -12.08746,-0.2987 -19.88673,-2.70764 -3.80051,-1.17386 -6.6809,-1.09287 -5.90289,0.16598 0.52632,0.8516 9.31729,4.8412 14.0919,6.39532 2.15361,0.70099 5.6706,1.58131 7.81553,1.95626 4.96431,0.86781 6.1635,1.5115 5.92585,3.18083 -0.1646,1.15619 -0.61491,1.33674 -3.73572,1.49785 -4.79714,0.24765 -12.83851,-2.08201 -20.65408,-5.98368 -5.60896,-2.8001 -7.42387,-3.21673 -7.42387,-1.70422 0,0.30619 3.25301,3.14115 7.22892,6.29989 5.75427,4.57161 7.22891,6.04832 7.22891,7.23906 0,3.36424 -4.40739,1.07614 -13.83504,-7.18247 -3.53965,-3.10073 -6.23915,-4.58079 -6.98839,-3.83155 -0.15697,0.15697 0.81507,1.01365 2.16009,1.90374 6.63138,4.38845 15.26665,13.30681 17.92693,18.51465 l 1.03762,2.03127 z"
   id="path902" /><path
   style="fill:#ffffff;fill-opacity:1;stroke-width:0.60241"
   d="m 77.694134,223.82238 c 2.72462,-1.11588 6.5198,-2.91238 8.43373,-3.9922 4.67004,-2.63481 14.953016,-9.66579 17.937706,-12.26491 l 2.40964,-2.09835 -2.23164,-0.0226 c -6.093666,-0.0618 -20.350816,8.14382 -31.202096,17.95811 -3.45896,3.12841 -2.23109,3.23924 4.65266,0.41996 z"
   id="path906" /><path
   style="fill:#f5f8ff;fill-opacity:1;stroke-width:0.60241"
   d="m 382.98123,322.91597 c 4.7293,-1.96907 8.77556,-12.19645 6.97898,-17.64014 -1.52382,-4.61723 -4.16621,-5.65006 -19.62958,-7.6726 -23.91256,-3.12765 -41.44766,-8.20925 -66.81745,-19.36344 -18.37312,-8.078 -17.29084,-7.41927 28.86564,17.56916 27.09127,14.66681 38.35992,20.99858 44.82231,25.18529 4.17984,2.70794 4.01968,2.6547 5.7801,1.92173 z"
   id="path908" /><path
   style="fill:#ff4500;fill-opacity:1;stroke-width:0.60241"
   d="m 106.4181,304.48554 c 4.62984,-0.72176 10.41616,-2.59437 14.69995,-4.75729 4.07779,-2.0589 26.08135,-21.15176 25.30544,-21.95795 -0.19583,-0.20347 -4.12357,1.27998 -8.72831,3.29657 -20.16398,8.83054 -37.859726,12.92314 -41.862606,9.68181 l -1.38165,-1.1188 1.46551,-0.95137 c 0.80604,-0.52326 4.04082,-1.39111 7.188406,-1.92856 7.45579,-1.27308 13.72113,-2.87745 20.287,-5.19491 5.53381,-1.9532 17.08458,-7.53168 19.17084,-9.25863 1.15978,-0.96003 1.12608,-0.98389 -0.90146,-0.63826 -19.05212,3.24781 -36.44794,4.55529 -36.44794,2.73944 0,-1.52985 7.04021,-3.39618 20.78313,-5.50952 l 12.95181,-1.99169 -3.31326,-0.87942 c -2.53215,-0.6721 -7.72003,-0.89633 -22.00595,-0.95117 -10.28098,-0.0394 -19.023446,-0.27616 -19.427706,-0.52601 -1.14011,-0.70462 -0.86923,-2.07616 0.56125,-2.84173 4.01944,-2.15114 22.733736,-2.95073 33.944696,-1.45033 3.64458,0.48777 6.89759,0.88521 7.22892,0.88319 0.33132,-0.002 -2.10843,-1.32042 -5.42169,-2.9298 -6.40399,-3.11068 -9.64571,-5.33972 -16.48617,-11.33603 -5.08897,-4.46097 -7.29464,-5.22402 -12.621,-4.36624 -10.802606,1.73971 -17.175806,6.81927 -20.371016,16.2361 -1.65587,4.88014 -1.51933,21.35651 0.24823,29.95333 1.52752,7.42928 2.62576,9.89188 5.44947,12.21943 4.08197,3.3647 11.91663,4.78875 19.684106,3.57784 z"
   id="path912" /><path
   style="fill:#a4fcfc;fill-opacity:1;stroke-width:0.60241"
   d="m 110.03255,303.3756 c 9.06854,-2.47425 12.37128,-4.33367 21.38555,-12.03991 7.41888,-6.34236 13.88246,-12.29259 13.62873,-12.54632 -0.13988,-0.13988 -3.87351,1.22567 -8.29695,3.03455 -17.17811,7.02467 -27.85299,10.04147 -35.53613,10.04277 -3.587226,6e-4 -4.906586,-0.24591 -5.983586,-1.11801 l -1.38165,-1.1188 1.46552,-0.94959 c 0.80603,-0.52228 4.989606,-1.65906 9.296836,-2.52619 9.84038,-1.98105 18.27091,-4.54477 25.27355,-7.68566 5.80775,-2.60494 11.95856,-5.89496 11.63178,-6.22175 -0.10874,-0.10874 -3.71295,0.31364 -8.00935,0.93861 -8.80478,1.28078 -20.31358,2.41657 -24.37791,2.40583 -5.75529,-0.0152 -5.38834,-2.17525 0.65772,-3.87169 2.00707,-0.56315 8.98175,-1.90395 15.49928,-2.97956 8.69538,-1.43501 11.4498,-2.08184 10.34653,-2.4297 -0.82694,-0.26074 -10.58486,-0.68212 -21.68425,-0.93639 -11.0994,-0.25428 -20.248496,-0.49662 -20.331326,-0.53854 -0.0828,-0.0419 -0.1506,-0.71041 -0.1506,-1.48554 0,-1.87104 1.70998,-2.58862 8.253616,-3.46353 5.16288,-0.69029 26.45434,-0.42713 30.6018,0.37825 1.14464,0.22227 0.0403,-0.60559 -3.01205,-2.25802 -6.22014,-3.36731 -7.24536,-4.06969 -14.12805,-9.67907 -6.95658,-5.66959 -8.73673,-6.32434 -14.42903,-5.30707 -11.019926,1.96937 -18.001206,8.51988 -19.932276,18.70241 -0.7574,3.99376 -0.75658,15.71609 0.002,21.71105 1.50178,11.87584 3.63647,16.21611 9.35068,19.01181 4.61359,2.25722 13.474816,2.67219 19.860056,0.93006 z"
   id="path916" /><path
   style="fill:#000000;fill-opacity:0;stroke-width:0.60241"
   d="m 407.55407,254.23659 c 6.72934,-2.76663 18.53521,-11.58505 23.56283,-17.60031 5.11497,-6.11977 5.98348,-10.05466 2.49432,-11.30076 -3.06915,-1.0961 -4.62463,0.11407 -8.48318,6.59994 -4.33993,7.29502 -10.36093,13.5169 -18.26874,18.87824 -5.21314,3.5344 -6.31578,4.92923 -3.8695,4.89489 0.56026,-0.008 2.61418,-0.67026 4.56427,-1.472 z"
   id="path918" /><path
   style="fill:#947434;fill-opacity:1;stroke-width:0.60241"
   d="m 374.16371,372.70881 c 9.41267,-3.51849 12.69612,-15.3874 7.87886,-28.48018 -3.32803,-9.04523 -7.82536,-14.50527 -17.11382,-20.77725 -7.0331,-4.74907 -12.62633,-8.11351 -38.44443,-23.12513 -27.47947,-15.9776 -30.83258,-17.8709 -31.1276,-17.57589 -0.13063,0.13063 3.09223,3.88404 7.16191,8.3409 22.02688,24.12243 33.89077,40.93195 47.45595,67.23858 4.32774,8.39269 7.35434,12.20664 10.77184,13.57405 3.43712,1.37526 10.72233,1.81231 13.41729,0.80492 z"
   id="path920" /><path
   style="fill:#228b22;fill-opacity:1;stroke-width:0.60241"
   d="m 47.984364,165.67518 c 4.71301,-1.03701 11.11754,-3.47964 15.10425,-5.7606 3.98024,-2.27726 9.05085,-6.79463 10.26737,-9.14713 l 0.92395,-1.78673 -2.0032,0.40043 c -8.05789,1.61069 -23.05992,7.28724 -33.86377,12.81355 -5.24968,2.68527 -6.36607,3.47119 -5.44398,3.83244 1.86187,0.72943 11.08303,0.51329 15.01538,-0.35196 z"
   id="path924" /><path
   style="fill:#ffff00;fill-opacity:1;stroke-width:0.60241"
   d="m 110.03255,303.05288 c 5.77498,-1.62119 9.77071,-3.38548 13.4105,-5.9213 4.30074,-2.9963 20.19669,-16.73725 19.80976,-17.12417 -0.14586,-0.14587 -4.42708,1.34601 -9.51381,3.31529 -17.53431,6.78821 -24.08221,8.5227 -32.22405,8.53587 -4.475786,0.007 -5.763966,-0.20036 -6.887196,-1.10989 l -1.38165,-1.1188 1.46552,-0.93048 c 0.80603,-0.51176 4.71853,-1.66346 8.694426,-2.55933 9.73504,-2.19356 17.17817,-4.31363 22.44444,-6.39297 4.97955,-1.96614 14.23479,-6.52168 13.90986,-6.84661 -0.11888,-0.11888 -4.28097,0.33101 -9.24908,0.99977 -11.64879,1.56804 -25.18665,1.81705 -25.45511,0.46821 -0.32762,-1.64612 3.85572,-2.97776 16.53949,-5.26488 8.48286,-1.52961 11.81579,-2.34133 10.76619,-2.62203 -0.83612,-0.22362 -9.94399,-0.60533 -20.23972,-0.84826 l -18.719496,-0.44169 0.18244,-1.87291 c 0.31924,-3.2774 2.50892,-3.65324 21.368066,-3.66765 18.11319,-0.0138 17.12884,0.31619 10.41006,-3.49015 -1.50791,-0.85427 -5.57418,-3.77952 -9.03614,-6.50055 -6.96266,-5.47251 -9.07955,-6.59149 -12.44985,-6.58091 -8.555766,0.0268 -17.484136,5.74243 -21.058116,13.48057 -1.61724,3.50153 -1.71006,4.17836 -1.90436,13.88546 -0.21789,10.88586 0.45354,17.53036 2.31952,22.95392 1.63832,4.76189 3.16413,6.59673 7.08393,8.51873 3.05826,1.49956 4.2006,1.70769 10.075826,1.83582 4.27847,0.0933 7.6938,-0.15511 9.63855,-0.70106 z"
   id="path926" /><path
   style="fill:#ffff00;fill-opacity:1;stroke-width:0.60241"
   d="m 170.27352,156.84592 c 4.44826,-1.43536 13.38847,-2.92458 17.57662,-2.92784 2.85739,-0.002 3.27139,-0.18754 4.93939,-2.21112 1.00133,-1.21478 2.71182,-3.85785 3.8011,-5.87349 1.73364,-3.20802 1.98147,-4.22792 1.98832,-8.18287 0.0111,-6.40238 -1.4517,-9.0964 -8.99569,-16.56741 -12.07641,-11.95957 -19.57151,-14.84903 -26.35889,-10.16167 -4.72298,3.26169 -11.04174,13.42573 -12.49731,20.10258 -0.39726,1.82229 -0.85276,8.19277 -1.01222,14.15662 l -0.28992,10.84338 2.62725,-7.53012 c 3.15324,-9.03768 6.66869,-16.14761 11.08288,-22.41489 3.52784,-5.00884 5.74535,-7.10319 7.52091,-7.10319 2.01201,0 1.2582,2.55009 -2.23066,7.54613 -1.84484,2.6418 -4.5658,7.01801 -6.04659,9.72492 -2.74669,5.02099 -7.46664,16.77774 -7.46664,18.59839 0,0.55401 2.49626,-2.34268 5.54724,-6.43709 3.05099,-4.09442 7.44037,-9.34198 9.75419,-11.66126 3.74893,-3.75778 4.23161,-4.07 4.43358,-2.86782 0.31178,1.85585 -1.949,5.78281 -8.35667,14.51551 -2.99883,4.08696 -5.34565,7.53761 -5.21514,7.66812 0.49402,0.49402 11.26704,-9.44599 17.55578,-16.19831 6.83415,-7.33793 8.81114,-8.52537 8.81114,-5.29221 0,3.21052 -8.49794,12.89355 -17.77108,20.24939 -1.98795,1.57692 -3.72741,2.96697 -3.86546,3.08899 -0.47223,0.41741 0.85424,0.1013 4.46787,-1.06474 z"
   id="path930" /><path
   style="fill:#ffff00;fill-opacity:1;stroke-width:0.60241"
   d="m 120.51701,161.80204 c -7.92889,-5.26497 -12.44981,-9.32892 -15.56129,-13.98841 -2.61271,-3.91256 -3.371,-7.75339 -1.53075,-7.75339 0.5074,0 4.37035,3.32249 8.58434,7.38331 4.21399,4.06082 8.88168,8.35962 10.37264,9.55289 3.19754,2.5591 8.36417,5.62333 8.78016,5.20734 0.16059,-0.1606 -1.68147,-1.88114 -4.09348,-3.82344 -5.74657,-4.62748 -12.36337,-11.2644 -14.86774,-14.91293 -2.41506,-3.51843 -2.81751,-6.62777 -0.8934,-6.90238 0.96258,-0.13737 3.87606,2.43458 11.89177,10.49779 5.83926,5.87386 10.7751,10.52148 10.96852,10.32805 0.19343,-0.19343 -2.83402,-4.76651 -6.72767,-10.16242 -11.76992,-16.311 -14.1428,-20.95174 -11.27552,-22.05202 1.43581,-0.55097 4.43214,2.94992 13.96477,16.31631 4.42674,6.20704 8.19795,11.1362 8.38048,10.95367 0.18253,-0.18253 -0.71321,-3.88823 -1.99053,-8.23488 -2.23753,-7.61418 -3.55658,-10.394 -9.54483,-20.11514 -4.12717,-6.69993 -1.67182,-8.52657 3.84111,-2.85758 5.02729,5.16961 8.95248,13.91952 11.87015,26.46056 1.07279,4.61119 1.07658,4.61691 1.49573,2.25694 0.23111,-1.30127 0.43583,-6.71925 0.45492,-12.03994 l 0.0347,-9.67399 -2.0432,-3.39307 c -4.05196,-6.72895 -11.76821,-14.26165 -17.66172,-17.2416 -3.18371,-1.60979 -3.38122,-1.60297 -6.04746,0.20878 -1.20696,0.82015 -4.24228,1.94077 -6.74514,2.49026 -5.93999,1.30409 -8.38984,2.59251 -11.37251,5.981 -5.796936,6.58567 -6.282686,16.71675 -1.279836,26.69274 3.847456,7.67207 11.164616,14.78985 20.918076,20.3481 7.06016,4.0234 7.10513,3.13983 0.0777,-1.52655 z"
   id="path932" /><path
   style="fill:#ffff00;fill-opacity:1;stroke-width:0.60241"
   d="m 94.369904,202.29896 c 0.66265,-0.14967 4.72892,-1.36697 9.036146,-2.70511 8.5466,-2.65521 13.58541,-4.77194 18.86319,-7.92414 1.88428,-1.12541 5.32564,-2.77824 7.64746,-3.67296 4.41711,-1.70215 7.47421,-3.61028 6.82474,-4.25975 -0.20986,-0.20986 -3.02201,0.74228 -6.24924,2.11586 -13.09776,5.57468 -25.76521,9.02666 -33.124446,9.02666 -4.22368,0 -6.3111,-0.69737 -6.3111,-2.10844 0,-1.45954 1.93151,-2.02124 10.303336,-2.9963 4.43858,-0.51695 9.82191,-1.37896 11.96295,-1.91556 6.54627,-1.64069 21.10721,-8.03016 21.10721,-9.26203 0,-0.68061 -0.11625,-0.66625 -17.71997,2.18991 -14.51046,2.35427 -20.436306,2.64724 -20.118036,0.9946 0.40565,-2.10639 4.915736,-3.24928 23.380166,-5.92472 6.12952,-0.88815 11.37632,-1.82514 11.65955,-2.0822 1.72742,-1.56776 -26.28603,-1.85845 -33.346286,-0.34602 -6.27511,1.34423 -9.03615,1.29479 -9.03615,-0.16181 0,-2.57775 11.233636,-5.49587 21.157006,-5.49587 h 6.14756 l -3.48487,-2.49546 c -4.58473,-3.28305 -8.49082,-4.70486 -14.100906,-5.13269 -8.27915,-0.63139 -19.45605,1.94801 -23.38367,5.39647 -5.53736,4.8618 -6.83773,15.0665 -3.16247,24.8176 1.85539,4.92269 6.82078,9.88776 11.32424,11.3235 3.02002,0.96282 7.85322,1.24418 10.62359,0.61846 z"
   id="path934" /><path
   style="fill:#ffff00;fill-opacity:1;stroke-width:0.60241"
   d="m 144.34021,257.05781 c 0.69968,-0.69968 0.10606,-1.32871 -7.452,-7.89636 -9.27478,-8.05943 -20.97843,-19.99698 -22.58282,-23.03415 -1.34023,-2.53711 -0.96266,-4.13604 0.97934,-4.14735 1.0002,-0.006 4.90017,3.58735 14.32614,13.19921 13.12933,13.38823 16.4312,16.32686 18.34506,16.32686 2.4083,0 -0.84097,-6.16619 -9.04701,-17.16867 -7.42055,-9.94931 -8.30403,-12.3494 -4.54587,-12.3494 2.58644,0 6.68822,4.89517 12.46912,14.88096 5.50577,9.51052 6.42053,10.77228 7.37993,10.17934 1.17848,-0.72834 0.78748,-4.29079 -1.12689,-10.26704 -3.80255,-11.87079 -7.15051,-18.85798 -12.96494,-27.05783 -2.17246,-3.06373 -2.73645,-6.19437 -1.22072,-6.77601 4.49358,-1.72435 16.31547,20.1429 19.6485,36.34433 0.39368,1.91366 0.94937,3.9226 1.23486,4.46431 0.49072,0.93113 3.41985,2.06977 3.95299,1.53663 0.13636,-0.13636 0.78313,-4.28359 1.43727,-9.21606 0.65414,-4.93248 1.7765,-11.6167 2.49413,-14.85383 l 1.30479,-5.88568 -3.07172,-6.17947 c -3.81377,-7.67228 -8.6416,-13.18045 -14.10494,-16.09262 -5.13579,-2.73758 -11.49716,-3.18246 -17.36528,-1.21444 -9.21239,3.0896 -20.80624,12.79199 -24.66861,20.64408 -3.71206,7.54651 -3.11539,15.12889 1.78333,22.66235 4.57695,7.0386 13.71961,14.54817 23.17426,19.03479 4.48145,2.12663 9.01114,3.47599 9.62108,2.86605 z"
   id="path936" /><path
   style="fill:#ffff00;fill-opacity:1;stroke-width:0.60241"
   d="m 144.0687,256.44534 c 0,-0.31796 -2.77862,-3.02226 -6.1747,-6.00954 -8.06986,-7.09847 -18.90121,-17.79761 -22.04901,-21.77988 -3.04173,-3.84807 -3.43872,-6.66797 -0.93873,-6.66797 1.22448,0 4.61137,2.9926 15.73061,13.8993 13.40979,13.15348 16.49584,15.76761 17.46727,14.79618 0.7251,-0.72509 -2.51236,-6.47515 -7.67705,-13.63524 -6.78855,-9.41132 -8.40658,-12.04283 -8.40658,-13.67215 0,-1.18604 0.30837,-1.38809 2.11857,-1.38809 1.72209,0 2.5958,0.50051 4.66867,2.67448 2.36198,2.47718 3.72901,4.53331 11.53902,17.35564 1.56402,2.56777 3.09549,4.66868 3.40328,4.66868 1.2409,0 0.40986,-5.51278 -1.83812,-12.19331 -3.09051,-9.18433 -5.75331,-14.87987 -9.9978,-21.3845 -2.39318,-3.66752 -3.53265,-6.05869 -3.73502,-7.83786 -0.27478,-2.41588 -0.20501,-2.56024 1.23735,-2.56024 4.79538,0 15.01468,18.68669 18.9776,34.70182 1.56108,6.30872 2.64296,8.01939 4.5974,7.26941 0.46855,-0.1798 1.16236,-3.23448 1.82349,-8.02832 0.58694,-4.25595 1.69856,-10.85556 2.47027,-14.6658 l 1.4031,-6.92771 -2.74424,-5.12048 c -3.46273,-6.4611 -6.15806,-10.1626 -9.61757,-13.20778 -10.91315,-9.60614 -25.41446,-6.88005 -39.67056,7.45763 -2.39175,2.40543 -5.13208,5.94052 -6.32531,8.15979 -2.00449,3.72813 -2.10525,4.20416 -2.10402,9.93976 0.001,5.63898 0.12799,6.26691 1.98328,9.8224 2.49043,4.77268 9.61322,12.28386 15.52258,16.369 6.91043,4.77717 18.33622,9.74024 18.33622,7.96478 z"
   id="path938" /><path
   style="fill:#95e4ff;fill-opacity:1;stroke-width:0.60241"
   d="m 118.16508,160.95271 c 0,-0.10552 -2.1162,-1.85873 -4.70267,-3.89602 -6.69953,-5.27703 -10.84685,-10.85296 -11.13935,-14.97651 -0.25329,-3.57077 1.87423,-2.43412 10.42034,5.56718 7.83914,7.33939 13.77081,12.2924 14.72126,12.2924 0.25034,0 -2.90121,-3.22501 -7.00345,-7.16669 -7.58208,-7.28534 -10.9995,-12.00814 -10.62032,-14.67703 0.12421,-0.87424 0.67852,-1.41809 1.57494,-1.5452 1.09373,-0.1551 3.39498,1.79099 10.99398,9.29723 5.28588,5.22136 9.6107,9.28357 9.6107,9.02712 0,-0.25644 -2.4053,-3.89803 -5.34511,-8.09241 -9.93907,-14.18059 -12.536,-18.80538 -11.7337,-20.89614 0.596,-1.55314 2.69398,-0.95805 4.8383,1.3724 1.14323,1.24247 5.61168,7.0892 9.92987,12.99273 4.3182,5.90354 7.94986,10.63511 8.07037,10.5146 0.33157,-0.33157 -3.11003,-11.4945 -4.55171,-14.76354 -0.6962,-1.57867 -2.87932,-5.59981 -4.85138,-8.93588 -1.97938,-3.34846 -3.58556,-6.78909 -3.58556,-7.68072 0,-4.25285 6.29412,0.34539 10.82233,7.90637 2.09582,3.49951 4.79207,10.81968 7.47631,20.29776 0.82647,2.91826 0.85498,2.69938 0.91575,-7.02904 0.0345,-5.5226 0.21115,-10.42791 0.39257,-10.90068 0.50885,-1.32603 -5.4074,-9.68632 -10.17626,-14.38012 -4.37719,-4.30831 -10.25996,-8.35281 -12.14924,-8.35281 -0.5802,0 -1.90602,0.52601 -2.94626,1.16892 -1.04024,0.6429 -4.05416,1.75952 -6.69761,2.48138 -6.18914,1.6901 -8.67264,2.97853 -11.12495,5.77156 -8.181236,9.31792 -5.678926,24.49399 5.99633,36.36668 4.79932,4.88047 10.86452,9.47854 10.86452,8.23646 z"
   id="path946" /><path
   style="fill:#00bfff;fill-opacity:1;stroke-width:0.60241"
   d="m 144.0687,256.45473 c 0,-0.31278 -2.91416,-3.14932 -6.4759,-6.30342 -9.2375,-8.18024 -23.52125,-22.94415 -23.98479,-24.79105 -0.52936,-2.10913 0.0457,-3.37231 1.53534,-3.37231 0.79617,0 6.35139,5.00063 15.68159,14.11604 13.35023,13.04292 16.32191,15.53673 17.32206,14.53659 0.69321,-0.69322 -2.69084,-6.62507 -8.09797,-14.1948 -6.71108,-9.39521 -8.02852,-11.55692 -8.02852,-13.17351 0,-1.06118 0.35897,-1.28432 2.06619,-1.28432 1.75456,0 2.53346,0.52243 5.16427,3.46386 1.70394,1.90512 5.47544,7.38034 8.3811,12.16717 2.90566,4.78682 5.5968,8.8079 5.9803,8.93574 1.36657,0.45552 0.69652,-4.71191 -1.48798,-11.4755 -2.66676,-8.25671 -5.82753,-15.21403 -9.46978,-20.84437 -3.811,-5.89121 -4.61001,-7.57014 -4.61001,-9.68686 0,-1.53916 0.23523,-1.83715 1.4502,-1.83715 4.72819,0 14.83343,18.62584 18.85817,34.75912 1.31066,5.25381 1.81717,6.43049 3,6.96943 0.86529,0.39425 1.62179,0.43049 1.92998,0.0925 0.27878,-0.30577 1.10067,-4.62221 1.82641,-9.59209 0.72574,-4.96988 1.84423,-11.45638 2.48552,-14.41445 l 1.16599,-5.3783 -2.78052,-5.16386 c -3.51154,-6.52152 -6.19838,-10.20955 -9.65384,-13.25117 -10.93403,-9.62451 -25.50725,-6.89303 -39.66745,7.43493 -2.35335,2.38123 -5.14863,5.99723 -6.3253,8.18249 -2.00844,3.72995 -2.10837,4.20136 -2.10714,9.93976 0.001,5.63898 0.12799,6.26691 1.98328,9.8224 2.49043,4.77268 9.61322,12.28386 15.52258,16.369 6.88796,4.76164 18.33622,9.74034 18.33622,7.97417 z"
   id="path948" /><path
   style="fill:#00bfff;fill-opacity:1;stroke-width:0.60241"
   d="m 383.22533,264.77322 c 3.22438,-0.41986 7.96776,-2.38732 8.73031,-3.62116 0.63236,-1.02318 -2.53487,-1.83646 -13.24839,-3.40189 -29.79684,-4.35384 -52.49769,-11.33497 -95.45006,-29.35352 -6.77464,-2.84196 -12.39772,-5.08702 -12.49573,-4.98901 -0.33033,0.33033 7.85527,6.62171 13.64553,10.48784 6.64469,4.43662 24.30078,13.27014 34.36735,17.19433 25.77924,10.04936 51.09056,15.42314 64.45099,13.68341 z"
   id="path950" /><path
   style="fill:#000000;fill-opacity:0;stroke-width:0.60241"
   d="m 442.16533,220.75353 c 1.31335,-0.7987 2.55169,-2.4375 3.74016,-4.94968 2.14392,-4.53186 2.32176,-8.15477 0.54168,-11.03502 -1.56021,-2.52446 -6.85764,-5.23421 -9.7003,-4.9619 -1.9453,0.18634 -2.01061,0.27702 -1.87458,2.60271 0.51383,8.78533 0.49554,8.97134 -1.19896,12.19499 l -1.66043,3.15884 1.23268,1.23268 c 2.52539,2.52539 6.4012,3.28901 8.91975,1.75738 z"
   id="path952" /><path
   style="fill:#d8bfd8;fill-opacity:1;stroke-width:0.60241"
   d="m 136.17583,361.97404 c -0.44631,-0.53777 -3.28619,-2.96819 -6.31085,-5.40094 -9.02652,-7.26006 -19.86525,-19.40094 -24.1263,-27.02478 C 104.28479,326.94703 104.33321,325 105.85179,325 c 2.11875,0 3.92037,1.7482 7.48775,7.26571 2.12912,3.29302 3.91085,5.9873 3.95941,5.9873 0.0486,0 -0.0384,-3.86295 -0.19334,-8.58434 -0.2605,-7.94055 0.397,-14.78065 2.05626,-21.39168 0.32379,-1.29011 0.24214,-1.33195 -1.38053,-0.70736 -3.38091,1.30136 -10.65175,2.37013 -16.12394,2.37013 h -5.558316 l -1.08205,2.25904 c -5.58001,11.64969 5.390716,28.60447 28.268536,43.68777 8.33273,5.49375 15.01753,8.65067 12.89026,6.08747 z"
   id="path954" /><path
   style="fill:#d8bfd8;fill-opacity:1;stroke-width:0.60241"
   d="m 165.5551,431.94736 c 10.92572,-3.06444 17.91592,-7.83571 21.65166,-14.77869 1.70984,-3.17777 1.5542,-11.7717 -0.29787,-16.44799 -2.68229,-6.77251 -9.8292,-15.95395 -15.76669,-20.25505 -4.7432,-3.43595 -4.69323,-2.72773 0.37942,5.37774 2.1772,3.47892 5.75163,9.91202 7.94316,14.29579 3.16641,6.33384 3.99253,8.55685 4.02318,10.82605 0.03,2.2229 -0.18799,2.90119 -0.98405,3.06157 -1.31042,0.264 -2.33868,-1.39244 -10.35567,-16.68212 -7.03739,-13.42142 -8.57299,-15.90168 -9.61749,-15.53388 -1.08595,0.38239 -0.54004,3.04404 2.65799,12.95944 3.09694,9.60196 3.68643,13.73005 2.05029,14.35789 -2.47327,0.94909 -4.85373,-3.98349 -7.78614,-16.13372 -2.24072,-9.28426 -2.92885,-10.70998 -3.91602,-8.11351 -1.61562,4.24939 -0.32634,19.63515 2.48925,29.7059 1.55562,5.56409 1.75327,6.91863 1.12079,7.68072 -1.74927,2.10775 -3.63261,0.43984 -5.46476,-4.83962 -2.60457,-7.50529 -3.18882,-11.60667 -3.23939,-22.74048 -0.043,-9.46982 -0.17011,-10.80229 -1.07897,-11.31168 -1.19671,-0.67071 -1.34478,-0.42942 -5.53191,9.01432 -1.51576,3.41866 -3.73197,7.8225 -4.92493,9.78632 -1.90067,3.12884 -2.1202,3.88583 -1.77448,6.11879 0.66035,4.2651 2.66862,11.2317 3.97723,13.79679 1.70777,3.34751 5.73701,7.57974 8.65481,9.09083 3.14821,1.63043 11.29685,2.02498 15.79059,0.76459 z"
   id="path956" /><path
   style="fill:#000000;fill-opacity:0;stroke-width:0.60241"
   d="m 444.4795,194.52995 c 1.03116,-0.47199 4.1798,-8.36382 5.07371,-12.71685 0.56544,-2.75348 0.59334,-4.10753 0.10665,-5.17569 -1.16445,-2.55569 -7.80802,-4.93871 -15.53092,-5.57087 -6.10564,-0.49978 -6.30502,-0.23252 -4.36436,5.85043 0.87922,2.75591 1.76658,6.63725 1.97191,8.6252 0.59173,5.729 0.83993,6.27709 3.44431,7.60575 2.36517,1.20661 7.8885,2.02753 9.2987,1.38203 z"
   id="path960" /><path
   style="fill:#f4e868;fill-opacity:1;stroke-width:0.60241"
   d="m 142.26147,254.98351 c -0.82831,-0.81726 -5.13771,-4.83911 -9.57644,-8.93743 -4.43873,-4.09831 -10.6059,-10.25943 -13.70482,-13.69137 -4.79984,-5.31564 -5.6344,-6.54552 -5.6344,-8.30332 0,-1.76561 0.2048,-2.06344 1.4189,-2.06344 1.59123,0 5.61722,3.44263 17.2558,14.75543 18.64661,18.12467 19.79607,18.07687 7.47595,-0.31086 -8.36975,-12.49182 -9.08277,-14.44457 -5.27425,-14.44457 3.40617,0 4.73663,1.59518 16.83164,20.18072 l 2.3522,3.61446 0.1857,-2.23785 c 0.23257,-2.80255 -3.68283,-14.73499 -6.99697,-21.32376 -1.31453,-2.6134 -3.77609,-7.03284 -5.47012,-9.82098 -2.28843,-3.76643 -3.08006,-5.66309 -3.08006,-7.37952 0,-2.09851 0.14653,-2.31018 1.5993,-2.31018 4.65499,0 13.57721,15.71673 18.29602,32.22892 2.033,7.11392 3.1084,9.33735 4.51616,9.33735 0.48935,0 0.88973,-0.15055 0.88973,-0.33455 0,-0.53557 3.51769,-21.29233 4.28957,-25.31137 l 0.70253,-3.65797 -2.9475,-5.29335 c -8.98876,-16.14271 -19.01953,-21.30449 -32.06539,-16.50066 -7.6743,2.82588 -18.01085,11.54889 -22.38885,18.89393 -1.95691,3.28314 -2.12318,3.95705 -2.31362,9.37725 -0.17095,4.86529 -3.6e-4,6.30295 1.02215,8.6145 2.53716,5.73568 10.20226,14.02236 17.37349,18.78235 3.72955,2.47554 12.38523,6.66016 14.94208,7.22381 l 1.80722,0.3984 z"
   id="path974" /><ellipse
   style="fill:#ebea36;fill-opacity:1;stroke-width:0.536677"
   id="path976"
   cx="-161.96797"
   cy="264.36444"
   rx="7.2759042"
   ry="6.0283132"
   transform="scale(-1,1)" /><ellipse
   style="fill:#ebea36;fill-opacity:1;stroke-width:0.536677"
   id="path976-9"
   cx="-146.83665"
   cy="171.08434"
   rx="7.2759042"
   ry="6.0283132"
   transform="scale(-1,1)" /><ellipse
   style="fill:#ebea36;fill-opacity:1;stroke-width:0.536677"
   id="path976-2"
   cx="-155.87279"
   cy="368.67471"
   rx="7.2759042"
   ry="6.0283132"
   transform="scale(-1,1)" /><path
   style="fill:#44d4fc;fill-opacity:1;stroke-width:0.60241"
   d="m 176.56018,204.11676 c 7.37471,-6.09989 19.28038,-11.04447 26.59308,-11.04447 h 2.86774 l 0.41665,-3.89063 c 0.22915,-2.13984 0.30514,-6.81605 0.16885,-10.39156 -0.27813,-7.29676 -1.24141,-9.92342 -5.02776,-13.70978 -3.98017,-3.98017 -6.31116,-4.77385 -14.73896,-5.01844 -8.80331,-0.25549 -14.41637,0.70644 -20.36461,3.48996 -2.15143,1.00677 -3.80343,1.92005 -3.67113,2.02951 0.13231,0.10946 4.44237,-0.0504 9.57791,-0.35525 10.77304,-0.6395 22.9099,-0.21034 25.20854,0.89137 2.19458,1.05184 2.3849,2.70386 0.39849,3.45909 -0.88934,0.33813 -8.1371,0.6306 -16.4595,0.66421 -8.17873,0.033 -15.54813,0.26607 -16.37644,0.51788 l -1.50603,0.45783 1.80723,0.73987 c 0.99398,0.40693 5.8735,1.52217 10.84337,2.4783 11.8846,2.28644 11.61742,2.20968 12.33082,3.54268 0.4714,0.88082 0.37472,1.39975 -0.4063,2.18077 -0.86648,0.86648 -1.78342,0.96661 -5.93196,0.64772 -2.69887,-0.20745 -7.58483,-1.05646 -10.85767,-1.88668 -3.27285,-0.83023 -6.7701,-1.49646 -7.77167,-1.48053 -1.65873,0.0264 -1.49887,0.19566 1.79341,1.89895 4.86117,2.51496 11.98985,5.07896 17.31291,6.227 6.15706,1.32791 7.08468,1.79296 7.08468,3.55185 0,1.22833 -0.3729,1.5616 -2.11245,1.88795 -4.38134,0.82194 -11.31163,-0.90531 -21.21892,-5.28845 -3.72082,-1.64614 -7.09362,-2.88348 -7.49513,-2.74965 -0.40151,0.13384 2.40413,2.85254 6.23475,6.04156 7.03875,5.85981 7.9677,6.94605 7.33972,8.58254 -0.67571,1.76088 -3.93542,0.57025 -8.45176,-3.08706 -3.98898,-3.23027 -3.66676,-2.39307 1.00385,2.60817 2.3841,2.55287 5.05395,5.89495 5.933,7.42685 l 1.59827,2.78526 z"
   id="path1007" /><path
   style="fill:#44d4fc;fill-opacity:1;stroke-width:0.60241"
   d="m 95.563774,201.70001 c 8.831976,-2.48653 18.769186,-6.3896 28.625406,-11.24328 11.98381,-5.9014 13.96921,-7.30101 5.58797,-3.93926 -13.59247,5.45202 -24.68548,8.36013 -31.894116,8.36127 -5.88412,9.3e-4 -6.82638,-0.29329 -6.82638,-2.13151 0,-1.74516 -0.0648,-1.72617 12.048186,-3.53247 6.42066,-0.95746 11.83923,-2.15434 15.30483,-3.38061 6.56645,-2.32348 15.97202,-6.7336 15.03052,-7.04757 -0.37881,-0.12632 -6.89791,0.73207 -14.48689,1.90753 -15.06939,2.33412 -22.474956,2.74517 -22.474956,1.24749 0,-2.25493 4.423916,-3.51787 21.084336,-6.01917 14.43328,-2.16693 15.06002,-2.4648 6.36708,-3.02607 -7.6882,-0.49641 -22.0611,0.013 -25.975336,0.92068 -1.30883,0.30349 -3.80289,0.55827 -5.54235,0.56618 -2.79453,0.0127 -3.16265,-0.12981 -3.16265,-1.22432 0,-2.70454 10.27197,-5.38782 20.625306,-5.38782 h 6.06149 l -2.61087,-1.8913 c -4.99746,-3.62014 -8.71092,-4.90386 -15.071616,-5.21014 -9.33499,-0.44952 -18.36838,1.69603 -22.53183,5.35159 -6.9515,6.10349 -6.49827,21.8724 0.86985,30.26422 3.53614,4.02744 6.7187,5.4418 12.61564,5.6065 2.83938,0.0793 5.69976,-0.007 6.35638,-0.19194 z"
   id="path1009" /><path
   style="fill:#44d4fc;fill-opacity:1;stroke-width:0.60241"
   d="m 170.05646,156.64276 c 0.58695,-0.58695 9.45706,-2.1972 14.97609,-2.71871 5.63471,-0.53244 5.7527,-0.57613 7.65728,-2.83482 1.06391,-1.26173 2.75819,-3.89086 3.76506,-5.84252 1.5041,-2.91546 1.82832,-4.25877 1.81745,-7.53012 -0.0225,-6.77246 -2.90166,-11.23346 -12.93858,-20.04719 -13.00121,-11.41675 -20.04616,-11.24041 -28.12857,0.70409 -5.55383,8.20768 -6.5411,11.59264 -6.94016,23.79518 -0.1842,5.63253 -0.1946,10.10543 -0.0231,9.93976 0.17149,-0.16566 1.03816,-2.33433 1.92593,-4.81927 5.03635,-14.09706 14.14184,-28.31326 18.13468,-28.31326 2.43947,0 1.82744,2.23836 -2.45126,8.96484 -5.72606,9.00186 -12.17218,22.55304 -11.57723,24.33791 0.11333,0.33998 2.20709,-1.93122 4.65279,-5.04712 4.6731,-5.95365 12.51196,-14.4002 13.36417,-14.4002 0.27533,0 0.4999,0.74548 0.49905,1.65662 -0.002,1.93558 -2.44014,6.14054 -8.08412,13.94126 -2.228,3.07938 -3.92893,5.72085 -3.77985,5.86993 0.14909,0.14908 5.28904,-4.62019 11.42213,-10.59838 6.13309,-5.97819 11.58823,-10.86943 12.12253,-10.86943 1.56723,0 1.17549,3.05686 -0.78865,6.15398 -1.92873,3.0413 -9.29406,10.71688 -14.50495,15.11594 -1.88472,1.5911 -2.90201,2.80341 -2.35943,2.81177 0.52459,0.008 1.08204,-0.11354 1.23876,-0.27026 z"
   id="path1013" /><path
   style="fill:#007940;fill-opacity:1;stroke-width:0.60241"
   d="m 261.53858,425.55597 c -3.37928,-2.17297 -13.74428,-6.90032 -18.9759,-8.65468 -5.23742,-1.7563 -12.53892,-2.69528 -13.15884,-1.69223 -0.40746,0.65928 6.31959,4.13694 12.78688,6.61039 5.89319,2.25389 13.5566,4.28945 17.75516,4.71616 l 3.70113,0.37614 z"
   id="path1017" /><path
   style="fill:#000000;fill-opacity:0;stroke-width:0.60241"
   d="m 441.96027,220.30182 c 2.41885,-1.51308 4.70102,-6.25255 5.00344,-10.39087 0.2157,-2.95172 0.0521,-3.57044 -1.40117,-5.2975 -2.08518,-2.4781 -5.65217,-4.31225 -8.38631,-4.31225 h -2.1212 l 0.13937,5.8735 c 0.12078,5.09037 -0.0413,6.21733 -1.21606,8.45228 -0.74548,1.41834 -1.35542,2.81942 -1.35542,3.11352 0,0.78922 3.78729,2.99018 5.79199,3.36598 1.12848,0.21154 2.37202,-0.0707 3.54536,-0.80466 z"
   id="path1019" /><path
   style="fill:#d0e3ff;fill-opacity:1;stroke-width:0.60241"
   d="m 413.14974,186.81203 c 1.0518,-0.47974 2.36388,-1.56135 2.91572,-2.40358 0.85257,-1.30118 0.89375,-1.86346 0.27397,-3.7414 -1.56366,-4.73793 -8.61239,-10.41859 -16.13191,-13.00088 -3.28146,-1.1269 -5.31769,-1.38567 -10.9581,-1.3926 -3.81024,-0.005 -8.29457,0.34387 -9.96518,0.77456 l -3.03748,0.78307 -0.0375,4.09168 c -0.028,3.05665 -0.42873,4.94633 -1.5842,7.4702 l -1.54674,3.37852 2.81445,0.38289 c 1.54794,0.21058 7.8295,1.20022 13.95902,2.19919 13.72065,2.23615 20.64271,2.66944 23.29791,1.45835 z"
   id="path1021" /><path
   style="fill:#f68a1e;fill-opacity:1;stroke-width:0.60241"
   d="m 409.57704,205.73807 c 4.29698,-1.02009 4.89982,-3.32427 1.66735,-6.37289 -4.43605,-4.18372 -11.66311,-6.36247 -30.83422,-9.29562 -11.15553,-1.70678 -11.5562,-1.67315 -15.29708,1.28384 -1.7381,1.37389 -4.26997,3.13268 -5.62638,3.90841 -1.35641,0.77573 -2.19512,1.41574 -1.86379,1.42223 2.35028,0.0461 10.49771,1.75798 22.89156,4.80991 17.73251,4.36656 24.42807,5.34434 29.06256,4.24412 z"
   id="path1023" /><path
   style="fill:#fde01a;fill-opacity:1;stroke-width:0.60241"
   d="m 394.61304,225.48475 c 0.79637,-0.43228 1.97682,-1.49851 2.62323,-2.36941 1.13019,-1.52271 1.13534,-1.66759 0.1344,-3.77692 -1.211,-2.552 -2.69173,-3.70173 -8.56114,-6.64738 -6.14387,-3.08339 -15.89613,-6.20413 -25.701,-8.22436 -12.81015,-2.63945 -18.79455,-2.30074 -30.54649,1.72891 -8.01644,2.74878 -8.01171,2.73821 -1.93994,4.32772 2.92274,0.76514 13.58214,3.80334 23.68756,6.75155 10.10542,2.94822 21.08434,6.05203 24.39759,6.89736 7.36441,1.87894 13.87287,2.41601 15.90579,1.31253 z"
   id="path1025" /><path
   style="fill:#000000;fill-opacity:0;stroke-width:0.60241"
   d="m 383.17102,249.80785 c 0.79844,-0.24141 1.94965,-1.1102 2.55823,-1.93062 0.93779,-1.26423 1.00799,-1.84578 0.46039,-3.8138 -2.5925,-9.31705 -21.60426,-18.13645 -59.31441,-27.51547 -13.10617,-3.25967 -15.32369,-3.65921 -17.43535,-3.14137 -10.30431,2.52688 -27.40995,6.98259 -27.27911,7.10571 0.42453,0.3995 39.37779,14.67705 48.65492,17.8335 13.72046,4.66825 27.55429,8.63965 35.17375,10.09764 7.08895,1.35647 15.10305,1.99288 17.18158,1.36441 z"
   id="path1027" /><path
   style="fill:#fc040f;fill-opacity:1;stroke-width:0.60241"
   d="m 386.40444,263.62572 c 4.27152,-1.41896 5.73857,-2.46362 4.46256,-3.17771 -0.4775,-0.26722 -7.4721,-1.59673 -15.54355,-2.95445 -27.45546,-4.61837 -45.60621,-10.03259 -79.92014,-23.83953 -11.17078,-4.4948 -20.71714,-8.30158 -21.21413,-8.4595 -1.70935,-0.54316 3.32327,3.51581 9.54221,7.69612 6.12892,4.11979 26.47734,14.51577 34.7349,17.746 12.91185,5.05093 32.0086,10.6051 43.37349,12.61491 2.98193,0.52733 8.94579,1.08738 13.25302,1.24454 6.62891,0.24188 8.36569,0.10825 11.31164,-0.87038 z"
   id="path1029" /><path
   style="fill:#24408e;fill-opacity:1;stroke-width:0.60241"
   d="m 373.48455,372.62657 c 2.972,-0.74994 6.19831,-3.62473 8.19973,-7.30631 4.86648,-8.95184 0.98747,-25.09217 -8.30907,-34.57354 -2.1012,-2.14297 -7.12111,-6.01286 -11.54253,-8.89822 -11.71654,-7.64607 -64.02073,-38.14195 -64.53541,-37.62728 -0.15664,0.15664 3.42213,4.44866 7.95281,9.53781 20.17549,22.66244 30.11685,36.74924 43.3041,61.36145 5.84961,10.9175 8.52256,14.54788 11.89699,16.15841 2.92718,1.39706 9.95703,2.12397 13.03338,1.34768 z"
   id="path1031" /><path
   style="fill:#24408e;fill-opacity:1;stroke-width:0.60241"
   d="m 118.76749,410.19117 c 8.30791,-2.19184 13.10769,-5.85018 16.92716,-12.90171 2.54113,-4.69143 8.44426,-17.60078 8.17262,-17.87242 -0.1249,-0.12489 -3.15144,2.90844 -6.72566,6.74074 -10.19917,10.93563 -19.51798,17.75788 -24.25626,17.75788 -1.65515,0 -1.94918,-0.2178 -1.94918,-1.44389 0,-1.16207 1.20204,-2.24413 6.15846,-5.54376 3.38716,-2.25492 8.30969,-6.14583 10.93897,-8.64646 5.05074,-4.80363 12.09823,-13.20235 11.54364,-13.75694 -0.33611,-0.33612 -4.26861,1.58675 -16.73253,8.18168 -7.85309,4.15524 -10.70372,4.75604 -10.70372,2.25592 0,-1.81984 3.5654,-4.3483 14.45783,-10.253 4.14157,-2.24511 7.66566,-4.22004 7.83133,-4.38873 0.16566,-0.16869 -2.44877,-0.14669 -5.80984,0.0489 -7.61743,0.44326 -13.82413,2.00448 -22.09557,5.55788 -7.194546,3.09077 -10.204776,3.39057 -10.537626,1.04949 -0.16583,-1.16634 0.75462,-1.79373 7.228916,-4.92733 9.93883,-4.81046 14.19006,-6.16529 20.5279,-6.54207 l 5.27764,-0.31376 -5.27764,-3.02848 c -10.47012,-6.00809 -10.73128,-6.10888 -13.92159,-5.37246 -4.38667,1.01256 -17.237706,6.97525 -20.752146,9.62868 -7.81645,5.90147 -9.14513,15.66916 -3.66853,26.96902 6.44277,13.29338 20.269976,20.25585 33.365826,16.80083 z"
   id="path1033" /><path
   style="fill:#24408e;fill-opacity:1;stroke-width:0.60241"
   d="m 132.32171,359.19547 c -7.53782,-6.45372 -20.55085,-20.12191 -23.9713,-25.17819 -3.91505,-5.78742 -4.64309,-8.58659 -2.31911,-8.91648 1.80338,-0.25599 4.07383,1.8812 7.80374,7.34571 l 2.82402,4.13734 0.40389,-11.36421 c 0.22214,-6.25032 0.69008,-12.44856 1.03985,-13.77386 1.02573,-3.88653 1.01011,-3.90472 -2.49796,-2.90833 -1.73945,0.49405 -6.78405,1.04805 -11.21021,1.2311 l -8.047556,0.33283 -1.12595,2.47943 c -2.29745,5.05913 -1.15393,12.21616 3.09839,19.3921 2.700826,4.55775 12.751626,14.75963 19.235746,19.52489 5.48339,4.02981 16.70145,10.87076 17.74625,10.82194 0.34906,-0.0163 -0.99185,-1.42223 -2.9798,-3.12427 z"
   id="path1035" /><path
   style="fill:#24408e;fill-opacity:1;stroke-width:0.60241"
   d="m 184.73135,347.58191 c 4.67856,-2.2985 7.29996,-4.00443 8.91748,-5.80324 2.60195,-2.8936 6.84552,-11.23375 6.05967,-11.90946 -2.4643,-2.1189 -6.29911,-4.99359 -6.40811,-4.80371 -0.0744,0.12964 -0.81302,1.58335 -1.64133,3.23048 -2.03078,4.03827 -8.44292,14.10959 -11.76096,18.47253 -1.48328,1.95038 -2.69687,3.67866 -2.69687,3.84063 0,0.58264 1.00311,0.17938 7.53012,-3.02723 z"
   id="path1037" /><path
   style="fill:#24408e;fill-opacity:1;stroke-width:0.60241"
   d="m 207.43031,399.38569 c 4.39011,-1.4071 9.0567,-6.07264 11.95011,-11.94743 2.90115,-5.8905 5.31029,-15.04881 5.80979,-22.08587 0.32093,-4.52125 0.20748,-5.4534 -0.93671,-7.69619 -1.53795,-3.01464 -4.96874,-5.66132 -9.29456,-7.1703 -4.75145,-1.65745 -16.63424,-1.51094 -22.86943,0.28196 -4.66308,1.34085 -11.79008,4.6704 -16.3943,7.65899 l -2.40964,1.56409 2.40964,-0.33505 c 20.55441,-2.85799 38.69773,-1.43134 39.34234,3.09357 0.27266,1.91395 -1.38606,2.18384 -8.40585,1.36774 -7.0569,-0.8204 -23.52491,-0.45141 -29.31051,0.65675 -2.08763,0.39986 -3.70518,0.81754 -3.59454,0.92818 0.11063,0.11063 3.17412,0.63787 6.80775,1.17163 12.79143,1.87901 20.79907,3.83322 22.57044,5.50816 0.80322,0.75949 0.80322,0.92315 0,1.47297 -1.00696,0.68929 -11.09595,0.30412 -17.46988,-0.66694 -2.15361,-0.3281 -4.86445,-0.73385 -6.02409,-0.90167 l -2.10844,-0.30511 2.39507,1.29239 c 3.05533,1.64867 10.75741,4.25259 19.59289,6.62396 8.63202,2.31677 10.3782,3.16616 10.1277,4.92642 -0.15353,1.07878 -0.64264,1.35387 -2.67073,1.50209 -3.07681,0.22487 -16.55257,-2.45528 -22.18469,-4.41225 -2.30206,-0.79988 -4.31757,-1.32231 -4.47893,-1.16095 -0.16136,0.16136 0.67401,1.30497 1.85637,2.54136 1.18237,1.23639 3.94969,4.86993 6.14959,8.07453 3.14737,4.58476 4.54961,6.09269 6.5794,7.07529 3.46721,1.67845 8.9744,2.09131 12.56121,0.94168 z"
   id="path1039" /><path
   style="fill:#ffffff;fill-opacity:1;stroke-width:0.60241"
   d="m 168.18058,430.79489 c 5.83236,-2.0227 11.27422,-5.11869 14.47204,-8.23346 4.53005,-4.41241 5.09558,-5.8902 5.06065,-13.22408 -0.0339,-7.11386 -0.91809,-9.72968 -5.58654,-16.52697 -3.76948,-5.48839 -12.77855,-14.375 -13.66968,-13.48387 -0.15271,0.15271 1.2498,2.83358 3.11668,5.9575 4.97735,8.32877 11.535,21.31322 11.99065,23.74201 0.78957,4.20877 -0.79351,6.42944 -2.90599,4.07639 -0.52054,-0.57982 -4.37331,-7.4247 -8.56172,-15.21084 -7.42737,-13.80731 -8.95531,-16.26142 -9.67582,-15.54091 -0.38709,0.38709 0.29755,3.12468 3.56133,14.24048 1.2006,4.08898 2.1829,8.64765 2.1829,10.13037 0,2.58555 -0.0678,2.68807 -1.65662,2.50525 -2.23156,-0.25677 -4.296,-4.53798 -6.77315,-14.04604 -2.69329,-10.3377 -3.08686,-11.47729 -3.61984,-10.48142 -1.72208,3.2177 -0.95765,15.78953 1.64464,27.04769 0.88073,3.81024 1.61678,7.8765 1.63568,9.03614 0.0302,1.85333 -0.16257,2.13116 -1.59327,2.29625 -1.41378,0.16314 -1.82454,-0.20079 -3.12649,-2.77006 -2.89305,-5.70917 -4.0852,-12.13831 -4.38028,-23.62257 -0.39608,-15.41453 -0.76118,-16.16194 -4.19333,-8.58434 -1.16303,2.56777 -3.58737,7.58638 -5.38742,11.15246 -1.80004,3.56608 -3.27281,7.18055 -3.27281,8.03216 0,2.46498 2.36957,11.07637 3.99092,14.50361 1.79898,3.80273 7.2177,8.94357 10.34148,9.81114 3.96863,1.10222 12.04677,0.70491 16.40599,-0.80689 z"
   id="path1041" /><path
   style="fill:#ffffff;fill-opacity:1;stroke-width:0.60241"
   d="m 135.93617,249.67319 c -8.33855,-7.77627 -17.26064,-16.86876 -20.2738,-20.66102 -1.66431,-2.09464 -2.31656,-3.49396 -2.31656,-4.96988 0,-1.76928 0.20147,-2.05434 1.45193,-2.05434 1.94803,0 5.29089,2.77642 18.12638,15.05487 11.41668,10.92121 14.68446,13.69557 13.98529,11.87356 -0.21561,-0.56188 -3.34536,-5.56299 -6.95499,-11.11357 -7.71744,-11.86722 -7.93391,-12.25656 -7.93391,-14.26923 0,-1.39608 0.22823,-1.54563 2.35883,-1.54563 3.12316,0 5.02385,2.03126 12.7509,13.62686 4.92456,7.39003 5.97322,8.65766 5.97384,7.22122 0.002,-4.72394 -4.87842,-17.20034 -10.86312,-27.77035 -3.30745,-5.84153 -4.19636,-7.93506 -4.19636,-9.88316 0,-2.32035 0.10595,-2.47168 1.73051,-2.47168 4.68722,0 12.40871,13.21477 18.0716,30.92825 1.33544,4.17724 2.72197,8.14412 3.08117,8.81529 1.3226,2.4713 2.20336,1.35805 2.96649,-3.74956 0.4084,-2.73343 1.49922,-9.17169 2.42404,-14.30723 l 1.68149,-9.33735 -1.83741,-3.31325 c -9.3341,-16.83145 -18.67962,-22.5063 -30.92,-18.77543 -7.65626,2.33362 -18.45304,10.91205 -23.63072,18.77543 -2.11407,3.21066 -2.18791,3.51278 -2.38467,9.75703 -0.1971,6.25487 -0.14738,6.54824 1.69581,10.00642 2.33935,4.38907 8.41471,11.13186 13.42386,14.8986 3.59569,2.70386 13.5418,8.05956 16.70988,8.9978 0.97439,0.28858 -0.83319,-1.73545 -5.12048,-5.73365 z"
   id="path1043" /><path
   style="fill:#ffffff;fill-opacity:1;stroke-width:0.60241"
   d=""
   id="path1047" /><path
   style="fill:#ffffff;fill-opacity:1;stroke-width:0.60241"
   d="m 113.04897,301.6438 c 5.64969,-1.9253 9.07326,-3.84572 14.22136,-7.97735 6.00281,-4.81757 14.38979,-12.23968 14.12737,-12.5021 -0.13267,-0.13268 -4.80435,1.4575 -10.3815,3.53372 -15.93095,5.93067 -18.70316,6.63835 -27.44411,7.00589 -6.521886,0.27423 -7.895096,0.17173 -9.205936,-0.68717 -2.88024,-1.88721 -1.77053,-2.41785 12.750826,-6.09717 5.68559,-1.44057 12.45778,-3.35107 15.04932,-4.24555 5.21042,-1.7984 16.20247,-6.75659 15.82014,-7.136 -0.13367,-0.13265 -3.22497,0.12998 -6.86955,0.58362 -8.90118,1.10792 -21.28651,1.7464 -24.00051,1.23725 -2.88719,-0.54164 -2.86301,-1.94864 0.0547,-3.18451 1.24247,-0.52627 7.13855,-1.93563 13.10241,-3.13191 l 10.84337,-2.17505 -4.51807,-0.37307 c -2.48494,-0.20519 -8.20331,-0.4085 -12.70749,-0.45181 -4.50418,-0.0433 -11.02545,-0.25226 -14.491716,-0.46434 l -6.30229,-0.38561 0.25788,-1.75703 c 0.5173,-3.52458 1.64923,-3.76041 19.659326,-4.09591 l 16.29513,-0.30356 -3.61445,-2.32915 c -1.98796,-1.28103 -6.46085,-4.43113 -9.93976,-7.00022 -8.06745,-5.95758 -8.50583,-6.16904 -12.6679,-6.11045 -6.461666,0.091 -13.619186,3.95391 -17.731386,9.56972 -3.54448,4.84051 -3.93932,6.8191 -3.92761,19.68224 0.0118,12.8706 0.76441,17.92464 3.45879,23.22466 1.45479,2.86169 2.18569,3.56438 5.4826,5.27109 3.66512,1.89731 4.06058,1.96875 10.829706,1.95639 6.05007,-0.011 7.6955,-0.24109 11.84932,-1.65662 z"
   id="path1053" /><path
   style="fill:#ffffff;fill-opacity:1;stroke-width:0.60241"
   d="m 162.55603,431.54455 c 10.39759,-1.15447 22.51182,-9.03611 24.36164,-15.84992 0.87454,-3.22139 0.34509,-12.67355 -0.87101,-15.54997 -1.68724,-3.99081 -5.38437,-9.0402 -10.58155,-14.45189 -2.78419,-2.8991 -5.31767,-5.27108 -5.62997,-5.27108 -0.3123,0 0.68535,2.23644 2.217,4.96988 1.53165,2.73343 4.82032,9.02394 7.30817,13.97891 3.94213,7.85142 4.50041,9.36084 4.34479,11.74699 -0.14894,2.28362 -0.39562,2.76886 -1.48658,2.92424 -1.46768,0.20903 -1.84788,-0.38832 -11.81287,-18.55978 -5.97026,-10.88696 -7.61003,-13.50277 -7.64309,-12.19246 -0.0105,0.41764 1.20072,5.15037 2.69168,10.51717 1.50174,5.40559 2.71084,11.0631 2.71084,12.68428 0,2.83099 -0.0535,2.92024 -1.64151,2.73584 -2.73424,-0.31751 -4.32161,-3.78385 -8.06789,-17.61787 -2.18434,-8.06617 -2.83624,-8.0758 -2.88692,-0.0426 -0.0359,5.68311 0.55772,10.32788 2.7421,21.45686 0.88563,4.51212 1.43354,8.66431 1.21758,9.22709 -0.74695,1.94652 -3.53997,0.92702 -5.06729,-1.84964 -2.56523,-4.66361 -3.75527,-11.15554 -4.39519,-23.97676 -0.32968,-6.60546 -0.74993,-12.16043 -0.93389,-12.34438 -0.43613,-0.43613 -0.83394,0.2925 -6.38987,11.70369 -5.28213,10.84884 -5.44047,11.72479 -3.42326,18.93748 1.58127,5.65398 2.97764,8.44316 5.77968,11.54469 4.4308,4.90437 8.83593,6.23651 17.45741,5.27925 z"
   id="path1057" /><path
   style="fill:#24408e;fill-opacity:1;stroke-width:0.60241"
   d="m 162.61394,431.53886 c 10.39141,-1.15203 22.44912,-9.01276 24.30373,-15.84423 0.87454,-3.22139 0.34509,-12.67355 -0.87101,-15.54997 -1.68724,-3.99081 -5.38437,-9.0402 -10.58155,-14.45189 -2.78419,-2.8991 -5.3144,-5.27108 -5.62271,-5.27108 -0.3083,0 0.83049,2.50753 2.53065,5.57229 6.02434,10.85966 11.45469,22.39897 11.45469,24.34085 0,4.24495 -1.4869,4.97135 -3.81546,1.86397 -0.80692,-1.07681 -4.49467,-7.47868 -8.195,-14.22638 -10.2281,-18.65135 -10.56064,-18.9059 -6.62664,-5.07253 1.39321,4.89904 2.66953,10.60162 2.83625,12.6724 0.27636,3.43234 0.19956,3.76506 -0.86901,3.76506 -2.94309,0 -4.79223,-3.66714 -8.32926,-16.51827 -1.95619,-7.10744 -2.39414,-8.16348 -2.87296,-6.92771 -1.00943,2.60517 -0.012,15.40401 2.00215,25.69011 1.05264,5.37583 1.74831,10.20573 1.54593,10.73311 -0.24116,0.62845 -0.93462,0.89307 -2.0124,0.76792 -1.31303,-0.15246 -1.98315,-0.85871 -3.32496,-3.5042 -2.44302,-4.81661 -3.39045,-10.2761 -4.06784,-23.44054 -0.33093,-6.43146 -0.75902,-11.85089 -0.95131,-12.04318 -0.46605,-0.46604 -0.96137,0.43651 -6.41467,11.68854 -5.25852,10.85014 -5.42192,11.75663 -3.41362,18.93748 1.58127,5.65398 2.97764,8.44316 5.77968,11.54469 4.43974,4.91426 8.83085,6.23635 17.51532,5.27356 z"
   id="path1059" /><path
   style="fill:#ffff44;fill-opacity:1;stroke-width:0.60241"
   d="m 209.00395,398.14223 c 4.12002,-2.05309 7.61732,-6.08464 10.40777,-11.99765 3.01568,-6.39029 4.86116,-13.75653 5.23276,-20.88659 0.27463,-5.26944 0.17581,-6.0332 -1.0338,-7.99039 -1.83979,-2.97684 -5.84714,-5.58051 -10.37732,-6.74238 -4.75501,-1.21955 -16.58461,-0.85009 -21.5743,0.6738 -3.41241,1.04217 -12.99915,5.62685 -15.27987,7.30731 -1.24006,0.91368 -1.21044,0.93443 0.82204,0.576 1.15964,-0.2045 7.66566,-0.52829 14.45783,-0.71953 16.70468,-0.47034 23.92304,1.02486 23.36989,4.8408 -0.17331,1.19562 -0.57189,1.22303 -18.55061,1.27572 -10.40256,0.0305 -19.14054,0.31311 -20.14158,0.65146 -1.54262,0.52141 -0.85122,0.73254 5.42168,1.65565 13.84098,2.03681 22.17727,4.46643 21.81586,6.35825 -0.25598,1.33998 -8.46917,1.54235 -17.03572,0.41975 -3.64458,-0.4776 -6.70863,-0.78744 -6.809,-0.68852 -0.34505,0.34004 10.07449,3.89039 18.67694,6.36397 9.7593,2.80623 11.48461,3.66608 11.21114,5.58735 -0.16084,1.12998 -0.62538,1.34283 -3.26598,1.49651 -4.1648,0.24239 -18.45049,-2.72629 -24.85982,-5.16607 -0.53756,-0.20463 0.12704,0.96926 1.47688,2.60864 1.34985,1.63937 3.73189,4.79125 5.29344,7.00416 4.96399,7.03463 8.03898,8.91775 14.57378,8.92497 2.07143,0.002 4.04264,-0.4941 6.16799,-1.55321 z"
   id="path1061" /><path
   style="fill:#ffff44;fill-opacity:1;stroke-width:0.60241"
   d="m 165.10965,430.69096 c 8.1148,-1.75981 17.21461,-7.429 20.25671,-12.61996 1.5295,-2.60989 1.59155,-3.0435 1.35927,-9.49925 -0.28526,-7.92848 -1.15892,-10.09434 -7.01212,-17.38362 -3.56941,-4.44516 -8.88625,-9.84665 -8.46108,-8.5958 0.12425,0.36554 2.93123,6.01845 6.23774,12.56201 5.48036,10.8456 6.01292,12.19814 6.0241,15.29924 0.0108,2.99398 -0.13836,3.42336 -1.24398,3.58135 -1.57474,0.22501 -2.41221,-1.02198 -11.10598,-16.53662 -6.51767,-11.63123 -8.35408,-14.5205 -7.59929,-11.95614 2.11075,7.17115 4.60006,18.43194 4.60006,20.80905 0,2.73097 -0.1207,2.98613 -1.41265,2.98613 -2.72717,0 -4.3468,-3.10192 -7.8365,-15.00851 -1.20512,-4.11177 -2.36279,-7.63532 -2.57259,-7.83011 -0.89038,-0.82664 0.40306,16.59148 1.83015,24.64585 2.04527,11.54331 2.03665,12.04819 -0.20565,12.04819 -4.5709,0 -7.23891,-9.06409 -8.24223,-28.00153 -0.63859,-12.05335 -0.54991,-12.01575 -5.24221,-2.22298 -6.37013,13.29437 -6.65294,14.53419 -4.88205,21.40262 2.13687,8.28794 7.19301,14.60109 13.09841,16.3548 3.67483,1.09131 7.26388,1.08127 12.40989,-0.0347 z"
   id="path1063" /><path
   style="fill:#ffff44;fill-opacity:1;stroke-width:0.60241"
   d="m 122.29868,349.8494 c -10.7637,-10.91885 -14.26884,-15.05829 -16.53109,-19.52263 -1.68368,-3.32259 -1.82427,-4.6216 -0.55297,-5.10944 2.11245,-0.81062 4.00802,0.5047 7.48449,5.19342 l 3.54312,4.7786 0.35848,-7.05251 c 0.19717,-3.87888 0.62957,-9.87654 0.96089,-13.32814 0.33133,-3.4516 0.51693,-6.36112 0.41245,-6.4656 -0.10448,-0.10448 -1.12081,0.0808 -2.2585,0.41173 -1.53821,0.44743 -12.16299,1.43581 -19.117346,1.77841 -0.76914,0.0379 -1.92709,4.90473 -1.92709,8.09951 0,7.8413 3.50279,14.07951 13.483346,24.01286 4.79151,4.76884 8.74272,7.97367 14.68301,11.90939 4.47006,2.96162 8.41556,5.38476 8.76779,5.38476 0.35223,0 -3.83573,-4.54066 -9.30658,-10.09036 z"
   id="path1065" /><path
   style="fill:#24408e;fill-opacity:1;stroke-width:0.60241"
   d="m 119.97231,409.43959 c 9.3836,-3.12842 12.40288,-6.17977 18.48532,-18.68163 2.47305,-5.08313 4.40138,-9.33712 4.28518,-9.45333 -0.1162,-0.1162 -3.71243,3.31451 -7.99161,7.62381 -9.42968,9.49603 -16.36369,14.42453 -20.90859,14.86124 -2.99726,0.288 -3.00182,0.28569 -2.80369,-1.4157 0.15999,-1.37383 1.30775,-2.50017 5.92135,-5.8108 3.14759,-2.25865 7.2992,-5.49052 9.22581,-7.18192 3.80601,-3.34138 12.46093,-12.97937 12.46093,-13.87631 0,-0.30504 -5.05645,2.03185 -11.23655,5.1931 -12.14494,6.21239 -15.26947,7.08933 -15.26947,4.28557 0,-2.02458 2.76509,-4.15381 12.56465,-9.67528 l 8.21848,-4.63062 -5.72289,0.32265 c -6.46304,0.36438 -11.64324,1.68313 -20.54951,5.23137 -7.247256,2.8873 -10.474586,3.06462 -10.474586,0.57549 0,-1.31926 0.85911,-1.93355 6.927706,-4.95357 8.87928,-4.41873 13.14086,-5.87337 18.3735,-6.27158 2.31927,-0.1765 4.61946,-0.44984 5.11151,-0.60742 1.26894,-0.40638 -12.56893,-8.04279 -14.57841,-8.04508 -2.51036,-0.003 -6.7096,1.54507 -14.647776,5.39952 -11.00549,5.3438 -14.17392,9.08506 -14.62742,17.27188 -0.61652,11.12997 6.71802,22.88234 17.653666,28.28703 4.31688,2.13352 5.14685,2.33047 10.47868,2.48662 4.36555,0.12785 6.6058,-0.10224 9.10372,-0.93504 z"
   id="path1067" /><path
   style="fill:#ffff44;fill-opacity:1;stroke-width:0.60241"
   d="m 204.97392,399.07857 c 6.92329,-1.16782 13.01119,-8.41236 16.69065,-19.8617 2.61763,-8.14525 3.37574,-18.29344 1.62021,-21.68826 -1.12099,-2.16777 -5.09255,-4.95448 -8.90581,-6.24892 -3.33239,-1.1312 -14.58975,-1.3467 -19.70215,-0.37716 -3.25919,0.61809 -12.87633,4.58314 -15.81365,6.5198 -1.61247,1.06314 -1.33454,1.08251 11.81584,0.8234 18.17987,-0.35821 24.47403,0.76012 24.47403,4.3485 0,0.96531 -0.43524,1.53851 -1.35543,1.78512 -0.74548,0.19978 -8.26807,0.38256 -16.71686,0.40618 -8.4488,0.0236 -16.44579,0.24629 -17.77109,0.49484 -2.29738,0.43085 -2.17109,0.48735 2.71085,1.21292 12.91604,1.91962 21.68674,4.48892 21.68674,6.35293 0,1.46502 -2.5788,1.75764 -11.93019,1.35375 -4.79851,-0.20725 -8.61791,-0.27042 -8.48755,-0.14037 0.13036,0.13005 5.62626,1.90557 12.21311,3.9456 6.58685,2.04003 12.49278,4.02824 13.12428,4.41824 0.73624,0.45468 1.08631,1.24943 0.97572,2.21511 -0.17031,1.48714 -0.24048,1.50528 -5.59416,1.44676 -3.89131,-0.0425 -7.61508,-0.59816 -13.1922,-1.96844 -4.27378,-1.05005 -7.8673,-1.81239 -7.9856,-1.69409 -0.25409,0.25409 7.09555,10.18982 9.36566,12.66112 2.90887,3.16665 8.0878,4.78575 12.7776,3.99467 z"
   id="path1069" /><path
   style="fill:#87cefa;fill-opacity:1;stroke-width:0.60241"
   d="m 184.69958,347.14944 c 7.23304,-3.75392 9.59114,-6.00052 12.71118,-12.1101 l 2.38083,-4.66207 -1.50602,-1.19953 c -0.82832,-0.65974 -2.22008,-1.73016 -3.09281,-2.37871 l -1.58678,-1.17919 -3.20585,5.56357 c -3.10746,5.39281 -8.19393,13.15309 -11.24747,17.15996 -0.82061,1.07681 -1.25653,1.94844 -0.96871,1.93695 0.28782,-0.0115 3.21985,-1.42038 6.51563,-3.13088 z"
   id="path1071" /><path
   style="fill:#ffff44;fill-opacity:1;stroke-width:0.60241"
   d="m 119.3699,409.71188 c 9.16183,-2.66473 13.06797,-6.51967 19.04807,-18.79835 2.44525,-5.02074 4.44591,-9.35507 4.44591,-9.63185 0,-0.27677 -3.72741,3.16127 -8.28313,7.64011 -11.11786,10.93022 -16.9481,14.99387 -21.51215,14.99387 -1.85232,0 -2.13243,-0.19089 -2.13243,-1.4532 0,-1.14933 1.29833,-2.39938 6.20887,-5.978 3.41488,-2.48863 7.66518,-5.83319 9.44512,-7.43234 3.672,-3.29905 12.05685,-12.7127 12.05685,-13.53619 0,-0.29901 -5.09658,2.03788 -11.32573,5.1931 -12.07797,6.11777 -15.18029,7.00385 -15.18029,4.33574 0,-2.05677 1.8711,-3.51762 11.81796,-9.22681 l 8.96517,-5.14573 -5.72289,0.3254 c -6.36521,0.36191 -11.73231,1.71001 -20.02986,5.03104 -3.42011,1.36888 -6.61099,2.2383 -8.279486,2.25592 -2.50177,0.0264 -2.71475,-0.0895 -2.71475,-1.47736 0,-1.32049 0.85345,-1.92812 6.927706,-4.93234 8.712,-4.30879 13.58001,-5.924 19.14559,-6.3525 2.4126,-0.18575 4.49732,-0.51697 4.63271,-0.73603 0.4158,-0.67279 -13.22444,-7.85865 -14.91734,-7.85865 -2.4674,0 -6.71051,1.56955 -14.602136,5.40139 -11.00549,5.3438 -14.17392,9.08506 -14.62742,17.27188 -0.61652,11.12997 6.71802,22.88234 17.653666,28.28703 4.33576,2.14285 5.12353,2.32814 10.47868,2.46468 3.4393,0.0877 6.89118,-0.17251 8.50131,-0.64081 z"
   id="path1073" /><path
   style="fill:#f4f4f4;fill-opacity:1;stroke-width:0.60241"
   d="m 94.258334,118.05185 c 1.33573,-2.80105 1.28059,-4.9505 -0.24336,-9.48652 -1.58669,-4.72277 -7.38413,-16.985989 -8.29678,-17.550038 -1.06913,-0.660759 -0.84368,2.031022 0.76815,9.171338 1.69386,7.50369 5.62709,19.99409 6.29614,19.99409 0.25336,0 0.9175,-0.95799 1.47585,-2.12887 z"
   id="path1079" /><path
   style="fill:#ffff44;fill-opacity:1;stroke-width:0.60241"
   d="m 51.749424,137.63183 c 0.74548,-0.29965 1.35542,-0.66064 1.35542,-0.80221 0,-0.63549 -11.66309,-4.83305 -17.88961,-6.43849 -6.88488,-1.7752 -21.09824,-3.95347 -21.7226,-3.32911 -0.18261,0.18261 1.26838,1.04351 3.22443,1.91312 16.44759,7.31215 30.02839,10.66804 35.03236,8.65669 z"
   id="path1081" /><path
   style="fill:#ffa600;fill-opacity:0.00801003;stroke-width:0.60241"
   d="m 105.81569,302.62172 c 7.15696,-0.57967 14.18407,-3.56226 20.59888,-8.74301 6.99434,-5.64879 13.41794,-11.35227 12.95933,-11.5065 -0.25825,-0.0868 -5.35179,1.58506 -11.31898,3.71536 -13.14199,4.69172 -18.12554,5.7799 -26.47031,5.7799 -6.511166,0 -8.720726,-0.54336 -8.720726,-2.14454 0,-1.16907 1.19889,-1.59718 14.441706,-5.15692 6.12064,-1.64526 12.89775,-3.61207 15.06024,-4.37068 4.32754,-1.51812 14.51036,-5.96213 14.25242,-6.22008 -0.0894,-0.0894 -4.10088,0.24938 -8.91437,0.75288 -4.81348,0.50351 -11.84301,0.83843 -15.62119,0.74427 -6.39482,-0.15937 -6.86941,-0.25387 -6.86941,-1.3679 0,-1.73498 2.17262,-2.5596 12.75083,-4.83961 5.1474,-1.10946 9.47259,-2.13088 9.61154,-2.26983 0.13895,-0.13896 -6.46224,-0.43591 -14.66932,-0.65989 -8.20708,-0.22399 -16.100996,-0.56953 -17.542036,-0.76786 -2.55931,-0.35225 -2.6115,-0.40421 -2.25092,-2.24107 0.70755,-3.60428 1.50925,-3.76797 21.310086,-4.35093 12.33564,-0.36318 13.31497,-0.47039 12.04819,-1.31902 -0.75837,-0.50804 -4.92028,-3.44786 -9.2487,-6.53294 -9.58295,-6.83026 -11.42493,-7.67529 -15.56076,-7.13872 -8.519476,1.10529 -17.074916,8.05766 -19.080316,15.50516 -0.79695,2.95964 -0.77507,24.4688 0.0293,28.76322 0.34131,1.82229 1.42661,4.96131 2.41179,6.9756 1.50975,3.08683 2.29023,3.93713 4.96669,5.41102 3.66597,2.01878 8.26361,2.5946 15.826076,1.98209 z"
   id="path1083" /><path
   style="fill:#7f7f7f;fill-opacity:0.180516;stroke-width:0.60241"
   d="m 128.0324,242.31928 c -6.63102,-6.70934 -12.64819,-13.0539 -13.3715,-14.09902 -0.7557,-1.09194 -1.31509,-2.82158 -1.31509,-4.06627 0,-1.98495 0.14502,-2.16604 1.73461,-2.16604 1.94737,0 5.42238,2.90644 21.13925,17.68047 5.1258,4.81831 9.42824,8.65197 9.56098,8.51923 0.13274,-0.13274 -2.90899,-5.19843 -6.7594,-11.25708 -5.24759,-8.25713 -7.00074,-11.50743 -7.00074,-12.97918 0,-1.90127 0.0793,-1.96344 2.50291,-1.96344 3.19738,0 4.87168,1.71262 12.25612,12.53663 4.0418,5.92442 5.47245,7.62668 5.62114,6.6883 0.36298,-2.29076 -3.70688,-12.74935 -9.06964,-23.30688 -4.01422,-7.90268 -5.28644,-10.98338 -5.28644,-12.80121 0,-2.28847 0.0844,-2.39395 1.91573,-2.39395 4.77812,0 11.22458,10.94952 18.01328,30.59612 3.00915,8.70853 3.78117,10.35234 4.51663,9.61688 0.20314,-0.20314 1.46181,-6.55754 2.79705,-14.1209 l 2.42771,-13.75157 -2.78964,-4.71846 c -7.53122,-12.73853 -14.18451,-17.92032 -23.02557,-17.93304 -7.65796,-0.011 -14.63245,3.67424 -23.50415,12.41941 -8.00823,7.89401 -8.66429,9.23074 -8.66429,17.65369 v 6.55711 l 2.30039,3.55725 c 3.14165,4.85815 8.62109,10.65562 13.01863,13.77425 3.68515,2.61342 13.55121,8.15649 14.51765,8.15649 0.28643,0 -4.9046,-5.48946 -11.53562,-12.19879 z"
   id="path1085" /><path
   style="fill:#ffa600;fill-opacity:0.00784314;stroke-width:0.60241"
   d="m 105.81569,302.62401 c 7.15985,-0.5833 14.18642,-3.56645 20.59888,-8.7453 6.99434,-5.64879 13.41794,-11.35227 12.95933,-11.5065 -0.25825,-0.0868 -5.35179,1.58506 -11.31898,3.71536 -13.14199,4.69172 -18.12554,5.7799 -26.47031,5.7799 -6.511166,0 -8.720726,-0.54336 -8.720726,-2.14454 0,-1.16907 1.19889,-1.59718 14.441706,-5.15692 6.12064,-1.64526 12.89775,-3.61207 15.06024,-4.37068 4.32754,-1.51812 14.51036,-5.96213 14.25242,-6.22008 -0.0894,-0.0894 -4.10088,0.24938 -8.91437,0.75288 -4.81348,0.50351 -11.84301,0.83843 -15.62119,0.74427 -6.39482,-0.15937 -6.86941,-0.25387 -6.86941,-1.3679 0,-1.73498 2.17262,-2.5596 12.75083,-4.83961 5.1474,-1.10946 9.47259,-2.13088 9.61154,-2.26983 0.13895,-0.13896 -6.46224,-0.43591 -14.66932,-0.65989 -8.20708,-0.22399 -16.100996,-0.56953 -17.542036,-0.76786 -2.55931,-0.35225 -2.6115,-0.40421 -2.25092,-2.24107 0.70741,-3.60355 1.51252,-3.76811 21.282776,-4.35002 l 13.39975,-0.3944 -4.0624,-2.825 c -2.23431,-1.55375 -6.6041,-4.63613 -9.71064,-6.84973 -6.84768,-4.87939 -8.82054,-5.56983 -13.46304,-4.71162 -7.152116,1.32214 -13.677096,6.13418 -16.731936,12.33945 l -1.85137,3.76065 0.006,12.32209 c 0.007,13.88378 0.476,17.3676 3.04849,22.62715 1.57707,3.2244 2.22745,3.90415 5.2679,5.50584 3.9128,2.06124 7.65904,2.51352 15.516876,1.87336 z"
   id="path1091" /><path
   style="fill:#2c000d;fill-opacity:0.00784314;stroke-width:0.60241"
   d="m 106.23748,302.62615 c 5.13355,-0.504 11.17444,-2.65293 15.84327,-5.63595 4.67945,-2.98981 17.58108,-13.94727 17.04873,-14.47962 -0.16839,-0.16839 -5.16236,1.43742 -11.09772,3.56847 -13.05451,4.68712 -18.08633,5.78842 -26.44715,5.78842 -6.511166,0 -8.720726,-0.54336 -8.720726,-2.14454 0,-1.16907 1.19889,-1.59718 14.441706,-5.15692 6.12064,-1.64526 12.89775,-3.61207 15.06024,-4.37068 4.32754,-1.51812 14.51036,-5.96213 14.25242,-6.22008 -0.0894,-0.0894 -4.10088,0.24938 -8.91437,0.75288 -4.81348,0.50351 -11.84301,0.83843 -15.62119,0.74427 -6.39482,-0.15937 -6.86941,-0.25387 -6.86941,-1.3679 0,-1.73498 2.17262,-2.5596 12.75083,-4.83961 5.1474,-1.10946 9.4743,-2.13259 9.61534,-2.27363 0.14104,-0.14104 -6.46016,-0.43987 -14.66933,-0.66408 -8.20917,-0.2242 -16.104786,-0.56803 -17.545826,-0.76406 -2.5599,-0.34823 -2.61159,-0.3996 -2.25092,-2.23688 0.70741,-3.60355 1.51252,-3.76811 21.282776,-4.35002 l 13.39975,-0.3944 -4.0624,-2.825 c -2.23431,-1.55375 -6.6041,-4.63613 -9.71064,-6.84973 -6.84768,-4.87939 -8.82054,-5.56983 -13.46304,-4.71162 -8.108366,1.49891 -15.599736,7.6419 -17.889846,14.6698 -0.91696,2.814 -0.95887,24.69114 -0.0563,29.38513 0.35013,1.82086 1.4154,4.97491 2.36727,7.00902 1.60718,3.43446 2.00393,3.82873 5.55982,5.52501 4.34507,2.07275 8.44444,2.55373 15.696706,1.84172 z"
   id="path1093" /><path
   style="fill:#2a7fff;fill-opacity:1;stroke-width:0.60241"
   d="m 375.55192,371.3828 c 2.76259,-1.50952 6.14089,-6.01821 7.11569,-9.49663 1.21825,-4.34711 0.42856,-12.90051 -1.69198,-18.32652 -3.75169,-9.59977 -9.48056,-15.34855 -24.66444,-24.75018 -15.12972,-9.36809 -56.95217,-33.63618 -57.32551,-33.26398 -0.11194,0.11159 4.31399,5.44264 9.83538,11.84677 18.54212,21.50658 25.49674,31.44474 39.13289,55.92099 7.35167,13.19589 9.25492,15.81134 12.73006,17.49362 4.03503,1.95333 11.79684,2.25399 14.86791,0.57593 z"
   id="path1097" /><path
   style="fill:#ffa600;fill-opacity:0.00784314;stroke-width:0.60241"
   d="m 340.76061,384.75545 c 3.07594,-1.44267 6.0605,-4.83341 6.9925,-7.94414 0.60757,-2.02791 0.55719,-3.03524 -0.30737,-6.14488 -2.72962,-9.81791 -15.03575,-29.96614 -32.36163,-52.98412 -10.11758,-13.44154 -24.39731,-30.46507 -25.02677,-29.83561 -0.12902,0.12902 1.37119,2.78946 3.33381,5.91209 7.60224,12.09561 14.40656,27.29253 17.80361,39.76297 2.59998,9.54445 3.43343,15.28772 3.92113,27.02041 0.37744,9.08029 0.69453,11.73698 1.71187,14.34282 1.75104,4.48514 3.69566,6.79579 7.43958,8.83987 2.76885,1.51171 4.01648,1.79487 8.65678,1.96472 4.34406,0.15901 5.90166,-0.0267 7.83649,-0.93413 z"
   id="path1099" /><path
   style="fill:#ffa600;fill-opacity:0.00784314;stroke-width:0.60241"
   d="m 341.65445,384.21301 c 2.78253,-1.46422 3.59122,-2.29362 5.0858,-5.21603 1.6813,-3.28752 1.74063,-3.64918 1.09981,-6.70429 -2.76894,-13.20102 -27.21706,-50.14861 -51.5459,-77.89951 -6.03475,-6.88359 -8.03557,-8.39705 -4.78871,-3.62226 5.00783,7.36443 12.44174,21.85817 15.80785,30.82025 5.15017,13.71203 7.1569,23.6905 7.8333,38.951 0.27168,6.12952 0.7982,12.14144 1.17004,13.35982 1.19175,3.90493 4.31186,7.78617 7.84591,9.75984 2.84119,1.58674 4.02501,1.86645 8.73494,2.06387 5.07032,0.21252 5.67787,0.10757 8.75696,-1.51269 z"
   id="path1101" /><path
   style="fill:#ffa600;fill-opacity:0.00784314;stroke-width:0.60241"
   d=""
   id="path1103" /><path
   style="fill:#ffff44;fill-opacity:1;stroke-width:0.60241"
   d="m 397.74671,146.65092 c 9.85147,-2.64433 20.28956,-2.85584 39.11954,-0.79268 4.61816,0.506 9.2529,0.75937 10.29944,0.56304 3.68146,-0.69065 3.98039,-5.02995 0.5807,-8.42964 -4.77636,-4.77636 -20.64801,-6.86289 -39.1563,-5.14759 -12.65429,1.17277 -24.5602,3.72852 -26.11901,5.60678 -0.50931,0.61368 -0.14579,1.18479 1.58445,2.48925 1.23497,0.93107 3.13502,2.87605 4.22232,4.32217 2.28416,3.03794 2.95693,3.1366 9.46886,1.38867 z"
   id="path1107" /><path
   style="fill:#ffff44;fill-opacity:1;stroke-width:0.60241"
   d="m 445.31351,194.05424 c 0.79695,-0.79695 2.12785,-3.64412 3.01255,-6.44467 3.78365,-11.97739 2.87441,-13.57459 -9.25479,-16.25714 -6.34652,-1.40363 -9.89028,-1.48818 -10.90935,-0.26028 -0.62101,0.74827 -0.40655,1.74489 1.19801,5.56745 1.4516,3.45812 2.03414,5.89717 2.26423,9.48014 0.36923,5.74961 1.30624,7.11348 5.80496,8.44946 4.25321,1.26306 6.2198,1.12963 7.88439,-0.53496 z"
   id="path1109" /><path
   style="fill:#ffff44;fill-opacity:1;stroke-width:0.60241"
   d="m 405.27684,255.15754 c 7.94277,-2.43549 23.65058,-14.45766 28.24527,-21.61787 2.62889,-4.09676 2.98019,-6.31211 1.19882,-7.55983 -3.39189,-2.37577 -6.33068,-0.43735 -10.12247,6.67678 -3.72888,6.99609 -9.09456,12.391 -18.45439,18.55493 -5.82299,3.83474 -6.2073,5.58342 -0.86723,3.94599 z"
   id="path1111" /><path
   style="fill:#e8e8e8;fill-opacity:1;stroke-width:0.60241"
   d="m 214.61418,261.63884 c 1.32531,-0.69284 5.05271,-3.31846 8.28314,-5.83472 l 5.87349,-4.575 0.0129,-5.43384 c 0.007,-2.98861 0.54347,-10.99106 1.1919,-17.78323 1.72168,-18.03414 2.13351,-15.95036 -4.06627,-20.57489 -6.26032,-4.66971 -8.39777,-5.92354 -13.14662,-7.71183 -11.42361,-4.30183 -27.14553,1.52132 -36.0992,13.37056 -2.87555,3.8055 -3.58902,6.19437 -5.68255,19.02674 -1.60847,9.8591 -2.17126,16.37135 -1.41482,16.37135 0.33005,0 3.05919,-4.94729 6.06474,-10.99398 9.56971,-19.25266 18.64126,-30.7974 22.38277,-28.48502 1.42402,0.8801 0.44586,3.23642 -3.00968,7.25008 -4.73188,5.49615 -10.30193,13.77229 -13.35241,19.8394 -3.65115,7.26177 -6.68489,15.45288 -5.98317,16.15459 0.38753,0.38754 4.50863,-3.37467 11.93748,-10.89788 6.2401,-6.31936 12.02334,-11.73694 12.85166,-12.03907 3.13289,-1.14273 3.87785,0.57563 1.75741,4.0538 -0.68756,1.12783 -5.63141,6.5033 -10.98631,11.94551 -10.69609,10.87046 -10.6575,10.59424 -1.01207,7.24397 7.50182,-2.60569 10.77792,-4.56279 20.4735,-12.23062 8.64607,-6.83781 12.16251,-8.84333 13.37675,-7.6291 0.33373,0.33374 0.44371,1.1206 0.2444,1.74858 -0.45299,1.42725 -12.28202,12.13878 -17.35861,15.71873 -3.6805,2.59544 -11.56655,6.75658 -14.41918,7.6084 -1.08743,0.32471 -0.23277,0.67855 3.70724,1.53482 2.81627,0.61206 6.88253,1.67695 9.03614,2.36645 4.85678,1.55493 6.29213,1.54819 9.33735,-0.0438 z"
   id="path1113" /><path
   style="fill:#e8e8e8;fill-opacity:1;stroke-width:0.60241"
   d="m 226.39095,333.84718 c 2.80613,-0.78661 6.59205,-2.85429 7.66416,-4.18578 0.38668,-0.48024 0.43068,-3.74838 0.12358,-9.17947 -0.26228,-4.63856 -0.67076,-15.32234 -0.90774,-23.74174 -0.42522,-15.1072 -0.44975,-15.3255 -1.87026,-16.64199 -2.46577,-2.28519 -19.44719,-10.38411 -27.02747,-12.89017 -7.0523,-2.33149 -20.96138,-4.88118 -21.83921,-4.00336 -0.60882,0.60882 0.29923,1.0703 12.13511,6.16713 5.9278,2.55266 12.89072,5.91109 15.47315,7.46317 5.54255,3.33117 16.51963,11.24869 19.5242,14.08236 3.474,3.27641 2.38705,6.07432 -1.68234,4.33049 -1.05829,-0.4535 -4.60575,-2.89531 -7.88325,-5.42625 -7.8062,-6.02809 -12.89415,-9.15164 -22.05296,-13.5386 -7.89523,-3.78172 -17.80695,-7.50577 -18.92314,-7.10984 -1.65537,0.58719 8.16696,8.25781 26.3006,20.5391 11.68076,7.91098 13.47162,9.59497 11.63332,10.93917 -2.2411,1.63873 -7.30938,-1.37817 -26.71434,-15.90175 -6.72189,-5.03098 -12.50089,-9.14724 -12.84222,-9.14724 -0.6893,0 0.81305,2.24555 4.83639,7.22892 8.56446,10.60807 16.13028,17.68115 26.75211,25.00981 4.93715,3.40644 6.16294,4.54626 6.31657,5.87349 0.1653,1.42809 -0.0216,1.64682 -1.407,1.64682 -0.8787,0 -4.47667,-1.69428 -7.99551,-3.76506 -4.83028,-2.84255 -8.06489,-5.37164 -13.20143,-10.32196 -3.74195,-3.6063 -6.80354,-6.42219 -6.80354,-6.25754 0,0.16464 0.68275,3.65171 1.51724,7.74903 1.80878,8.88114 2.50309,10.07642 10.4882,18.05586 10.78505,10.77739 20.50088,15.2357 28.38578,13.0254 z"
   id="path1115" /><path
   style="fill:#e8e8e8;fill-opacity:1;stroke-width:0.60241"
   d="m 156.77674,356.22617 c 10.71414,-2.06604 20.59714,-11.91564 24.38084,-24.29846 3.75859,-12.30062 2.04638,-30.82383 -4.04856,-43.79868 -1.29091,-2.74808 -2.85128,-5.40313 -3.4675,-5.90011 -0.99631,-0.80355 -1.08292,-0.80325 -0.78205,0.003 3.73717,10.01101 5.87671,19.78898 6.32653,28.91296 0.55019,11.16011 -1.28526,19.3008 -4.456,19.76348 -1.25953,0.18379 -1.27094,0.0584 -1.53533,-16.86747 -0.28671,-18.35509 -0.732,-21.52972 -3.90701,-27.85467 -2.20596,-4.39448 -2.55611,-2.54932 -1.30679,6.88637 1.22677,9.26537 1.38872,16.52524 0.54687,24.51517 -0.73929,7.01658 -2.05989,10.55981 -3.84103,10.30565 -1.26761,-0.18088 -1.27577,-0.29246 -1.07049,-14.6401 0.19829,-13.8599 -0.58882,-27.11689 -1.67502,-28.21136 -0.70957,-0.71498 -1.53702,3.28566 -4.25513,20.57317 -3.76725,23.96013 -5.68805,29.87573 -8.7171,26.84668 -1.30558,-1.30558 -1.20328,-2.345 1.45172,-14.74928 1.30503,-6.09714 2.82155,-14.06764 3.37005,-17.71222 0.5485,-3.64458 1.37297,-8.77796 1.83215,-11.40752 0.45919,-2.62956 0.71859,-4.89731 0.57646,-5.03944 -0.85201,-0.85201 -12.68648,21.90235 -15.01661,28.87272 -0.81665,2.44294 -1.91893,6.88147 -2.4495,9.8634 -1.41651,7.96106 -1.44213,8.04381 -2.69879,8.71635 -3.74785,2.00579 -4.10676,-7.24828 -0.67676,-17.44957 2.44618,-7.27527 6.59965,-15.85208 12.03224,-24.84628 2.34985,-3.89041 4.27245,-7.41112 4.27245,-7.82379 0,-0.41268 -3.9985,3.19767 -8.88555,8.023 -4.88704,4.82533 -10.55686,10.1828 -12.5996,11.90548 l -3.71406,3.13216 -1.86843,7.72552 c -3.22866,13.34973 -3.04903,21.81031 0.66128,31.14711 1.48965,3.74863 1.33455,3.64021 7.3545,5.14116 1.61486,0.40263 5.00341,2.08347 7.53013,3.73519 2.52671,1.65172 5.40727,3.33576 6.40124,3.74231 2.72838,1.11593 6.87838,1.4356 10.23485,0.78837 z"
   id="path1117" /><path
   style="fill:#2a7fff;fill-opacity:1;stroke-width:0.60241"
   d="m 383.9844,249.42727 c 5.15939,-2.2447 2.23506,-9.29801 -6.11499,-14.74898 -9.16972,-5.98605 -25.21276,-11.6956 -50.30342,-17.90245 l -15.96385,-3.94909 -14.87137,3.84028 -14.87138,3.84027 19.99186,7.43413 c 35.39517,13.16197 58.24054,20.12433 71.19667,21.6979 6.9059,0.83874 8.59657,0.80596 10.93648,-0.21206 z"
   id="path1119" /><path
   style="fill:#e8e8e8;fill-opacity:1;stroke-width:0.60241"
   d=""
   id="path1121" /><path
   style="fill:#2a7fff;fill-opacity:1;stroke-width:0.60241"
   d="m 396.54189,146.62961 c 7.79029,-2.39667 20.47652,-2.90685 36.14459,-1.45357 12.86743,1.19352 14.93901,1.16875 16.17169,-0.19335 1.30716,-1.4444 1.25878,-2.85062 -0.17807,-5.17549 -2.9382,-4.75411 -11.73436,-6.95598 -27.83595,-6.96796 -6.29385,-0.005 -13.67338,0.38533 -18.07229,0.95513 -7.86854,1.01922 -18.18909,3.38481 -19.49477,4.46843 -0.60812,0.50469 0.12996,1.56972 3.35196,4.83678 4.40739,4.46903 5.54447,4.87395 9.91284,3.53003 z"
   id="path1123" /><path
   style="fill:#e8e8e8;fill-opacity:1;stroke-width:0.60241"
   d="m 225.86009,399.37494 c 8.38666,-2.47189 17.52673,-5.73263 20.75547,-7.40455 2.09998,-1.08743 2.21426,-1.26023 1.13115,-1.71049 -2.14673,-0.89243 -11.85969,-0.53128 -16.86747,0.62718 -4.26551,0.98675 -5.06155,1.39475 -6.92771,3.55067 -1.15964,1.33969 -2.98945,3.36968 -4.06626,4.51108 -2.99998,3.17993 -3.29661,3.15877 5.97482,0.42611 z"
   id="path1125" /><ellipse
   style="fill:#f68a1e;fill-opacity:1;stroke-width:2.00001"
   id="path1127-9"
   cx="241.41499"
   cy="182.53012"
   rx="2.4096384"
   ry="6.3253012" /><ellipse
   style="fill:#f68a1e;fill-opacity:1;stroke-width:2.00001"
   id="path1127-9-2"
   cx="249.24631"
   cy="182.53012"
   rx="2.4096384"
   ry="6.3253012" /><path
   style="fill:#ffffff;fill-opacity:1;stroke-width:0.884996"
   id="path1227"
   sodipodi:type="arc"
   sodipodi:cx="-245.74777"
   sodipodi:cy="192.19579"
   sodipodi:rx="6.1677098"
   sodipodi:ry="4.2439761"
   sodipodi:start="0"
   sodipodi:end="3.1040967"
   sodipodi:arc-type="slice"
   d="m -239.58006,192.19579 a 6.1677098,4.2439761 0 0 1 -6.05209,4.24323 6.1677098,4.2439761 0 0 1 -6.279,-4.08414 l 6.16338,-0.15909 z"
   transform="scale(-1,1)" /><ellipse
   style="fill:#f68a1e;fill-opacity:1;stroke-width:6.52471"
   id="path1127-9-2-4"
   cx="245.0294"
   cy="254.81924"
   rx="3.6144578"
   ry="44.879517" /><path
   style="fill:#f4f4f4;stroke-width:0.60241"
   d="m 245.84308,297.74096 c 3.46933,-14.01967 2.7919,-87.19879 -0.80721,-87.19879 -1.31469,0 -2.44102,11.12708 -2.92698,28.91566 -0.77097,28.22129 0.77095,59.63855 2.92698,59.63855 0.25949,0 0.62273,-0.60994 0.80721,-1.35542 z"
   id="path1353" /><path
   style="fill:#f4f4f4;stroke-width:0.60241"
   d="m 242.60504,187.08779 c 0.95901,-1.79193 0.77284,-8.04993 -0.28001,-9.41241 -0.89448,-1.15754 -0.91275,-1.15754 -1.80723,0 -1.78265,2.3069 -1.07611,10.57763 0.90361,10.57763 0.30801,0 0.84064,-0.52435 1.18363,-1.16522 z"
   id="path1357" /><path
   style="fill:#f4f4f4;stroke-width:0.60241"
   d="m 250.43636,187.08779 c 0.95901,-1.79193 0.77284,-8.04993 -0.28001,-9.41241 -0.89448,-1.15754 -0.91275,-1.15754 -1.80723,0 -1.78265,2.3069 -1.0761,10.57763 0.90362,10.57763 0.30801,0 0.84064,-0.52435 1.18362,-1.16522 z"
   id="path1359" /></svg>
